<svg xmlns="http://www.w3.org/2000/svg" width="16" height="16" viewBox="0 0 16 16" fill="none">
  <path d="M14.2125 12.6185L11.7257 8.60092C11.2108 7.76968 10.6326 6.97929 9.99642 6.23674L9.50005 5.65758V5.00005C9.5 4.65404 9.57983 4.31269 9.7333 4.00258C9.88678 3.69247 10.1098 3.42197 10.3849 3.21214L11.3619 2.72364C11.3952 2.70697 11.4244 2.68305 11.4473 2.65364C11.4702 2.62422 11.4863 2.59005 11.4943 2.55364C11.5023 2.51722 11.502 2.47947 11.4935 2.44317C11.4851 2.40686 11.4686 2.37291 11.4453 2.3438L10.4453 1.0938L10.4451 1.09395C10.4226 1.06565 10.3942 1.04259 10.3619 1.02636L9.36186 0.526361C9.32426 0.507541 9.28252 0.498515 9.24051 0.500121C9.1985 0.501727 9.15757 0.513913 9.12152 0.535548C8.78272 0.738757 8.39511 0.846161 8.00005 0.846298C7.60499 0.846189 7.21738 0.738818 6.87858 0.535642C6.84256 0.513985 6.80165 0.501772 6.75966 0.500133C6.71766 0.498494 6.67593 0.507483 6.63833 0.526267L5.63833 1.02627C5.60601 1.04249 5.57762 1.06556 5.55511 1.09386L5.55483 1.0938L4.55483 2.3438C4.53155 2.37291 4.51507 2.40685 4.5066 2.44315C4.49813 2.47945 4.49789 2.51718 4.50588 2.55358C4.51388 2.58999 4.52991 2.62414 4.55281 2.65355C4.57571 2.68296 4.6049 2.70688 4.63823 2.72355L5.6152 3.21205C5.89035 3.42188 6.11334 3.6924 6.26681 4.00252C6.42029 4.31265 6.50011 4.65402 6.50005 5.00005V5.65758L6.0037 6.23667C5.36749 6.97926 4.78934 7.76969 4.27436 8.60095L1.78755 12.6185C1.76232 12.6592 1.74934 12.7064 1.75016 12.7543C1.75098 12.8022 1.76556 12.8489 1.79217 12.8888C2.01 13.2155 2.31462 13.475 2.6718 13.6381L2.5343 13.8741H2.53455C2.52827 13.8846 2.52278 13.8956 2.51814 13.907C2.4935 13.9686 2.49432 14.0374 2.52043 14.0983C2.54653 14.1593 2.59577 14.2074 2.65733 14.232L2.9502 14.3492C3.47005 14.5579 4.03319 14.6358 4.59017 14.576L4.5063 14.9447C4.49875 14.9779 4.49807 15.0123 4.5043 15.0457C4.51052 15.0792 4.52352 15.1111 4.54249 15.1394C4.56146 15.1676 4.58601 15.1917 4.61463 15.2102C4.64325 15.2286 4.67534 15.241 4.70892 15.2466L5.28183 15.3423C5.91249 15.4471 6.55072 15.4999 7.19005 15.5H8.81005C9.44942 15.4999 10.0877 15.4471 10.7184 15.3422L11.2912 15.2466C11.3248 15.241 11.3569 15.2286 11.3855 15.2102C11.4141 15.1917 11.4387 15.1676 11.4576 15.1394C11.4766 15.1111 11.4896 15.0792 11.4958 15.0457C11.5021 15.0123 11.5014 14.9779 11.4938 14.9447L11.4101 14.5762C11.9671 14.6359 12.5303 14.558 13.0501 14.3494L13.343 14.2322C13.3765 14.219 13.4067 14.1987 13.4316 14.1727C13.4565 14.1467 13.4754 14.1156 13.4871 14.0816C13.4988 14.0475 13.5029 14.0113 13.4992 13.9755C13.4956 13.9397 13.4841 13.9052 13.4658 13.8742H13.466L13.3285 13.6383C13.6857 13.4751 13.9903 13.2156 14.2081 12.8889C14.2347 12.849 14.2493 12.8023 14.2501 12.7543C14.2509 12.7064 14.2378 12.6592 14.2125 12.6185ZM10.5 2.59555V1.96274L10.8616 2.41477L10.5 2.59555ZM8.98755 1.15727C8.95005 1.39219 8.83003 1.60605 8.64904 1.76044C8.46805 1.91484 8.23794 1.99965 8.00005 1.99965C7.76215 1.99965 7.53205 1.91484 7.35106 1.76044C7.17006 1.60605 7.05004 1.39219 7.01255 1.15727C7.32684 1.28202 7.6619 1.34616 8.00005 1.3463C8.33819 1.34616 8.67326 1.28202 8.98755 1.15727ZM5.50005 1.96274V2.59555L5.13845 2.41477L5.50005 1.96274ZM6.00005 2.87886V1.40455L6.50761 1.15077C6.5449 1.52067 6.71822 1.86355 6.99398 2.11291C7.26973 2.36227 7.62827 2.50033 8.00005 2.50033C8.37183 2.50033 8.73036 2.36227 9.00612 2.11291C9.28187 1.86355 9.4552 1.52067 9.49249 1.15077L10 1.40455V2.87886C9.719 3.11068 9.48684 3.39605 9.31706 3.71839C9.14728 4.04072 9.04327 4.39359 9.01108 4.75648C8.80985 4.77543 8.61517 4.83799 8.44056 4.9398C8.26596 5.04162 8.11564 5.18025 8.00005 5.34605C7.88446 5.18025 7.73413 5.04162 7.55953 4.9398C7.38493 4.83799 7.19025 4.77543 6.98902 4.75648C6.95682 4.39359 6.85281 4.04072 6.68303 3.71839C6.51325 3.39605 6.28109 3.11068 6.00005 2.87886ZM8.30789 5.82545C8.36361 5.67898 8.45691 5.54977 8.57841 5.4508C8.69991 5.35183 8.84534 5.2866 9.00005 5.26167V5.63874C8.90402 5.7163 8.79286 5.77298 8.67367 5.80513C8.55449 5.83728 8.4299 5.8442 8.30789 5.82545ZM7.00005 5.63874V5.26167C7.15476 5.2866 7.30018 5.35183 7.42168 5.4508C7.54319 5.54977 7.63649 5.67898 7.6922 5.82545C7.57019 5.8442 7.44561 5.83728 7.32642 5.80513C7.20724 5.77297 7.09608 5.7163 7.00005 5.63874ZM3.13577 13.8851L3.11205 13.8757L4.71599 11.1261L4.28411 10.8742L2.92505 13.2036C2.68239 13.1015 2.46837 12.9416 2.30161 12.7378L4.69945 8.8642C5.20089 8.05481 5.76383 7.28517 6.3833 6.56211L6.78095 6.09814C6.84868 6.14389 6.92031 6.18356 6.99502 6.2167L6.30108 8.02067C5.94131 8.95721 5.64896 9.91828 5.42627 10.8965L4.70845 14.055C4.17858 14.1439 3.63443 14.0852 3.13577 13.8851ZM5.36389 14.8491L5.05242 14.7971L5.9137 11.0073C6.13112 10.0524 6.41654 9.11426 6.76777 8.20005L7.48339 6.33974L7.46499 6.33267C7.4952 6.33464 7.52545 6.33602 7.55586 6.33602C7.62084 6.33592 7.68573 6.33127 7.75005 6.32208V15H7.19005C6.57826 14.9999 5.96752 14.9494 5.36402 14.8491H5.36389ZM10.636 14.8491C10.0325 14.9494 9.42182 14.9999 8.81005 15H8.25005V6.32217C8.31437 6.33134 8.37926 6.33598 8.44424 6.33608C8.47464 6.33608 8.50492 6.3347 8.53511 6.33274L8.5167 6.3398L9.23233 8.20005C9.58351 9.11426 9.86888 10.0524 10.0863 11.0073L10.9475 14.7971L10.636 14.8491ZM13.4524 12.9801C13.3373 13.0715 13.2103 13.1467 13.0748 13.2037L11.716 10.8741L11.2841 11.126L12.888 13.8756L12.8644 13.885C12.3657 14.0851 11.8215 14.1438 11.2916 14.0549L10.5738 10.8964C10.3511 9.91816 10.0588 8.95708 9.69902 8.02052L9.00508 6.21658C9.07978 6.18344 9.15141 6.14377 9.21914 6.09805L9.61683 6.56208C10.2363 7.2851 10.7992 8.05469 11.3006 8.86405L13.6985 12.7378C13.6254 12.8272 13.5429 12.9084 13.4525 12.9801L13.4524 12.9801Z" fill="black"/>
</svg>