<svg width="881" height="534" viewBox="0 0 881 534" fill="none" xmlns="http://www.w3.org/2000/svg">
<path d="M604 -1.65808e-06L659.536 31.792L715.016 -1.65808e-06H604Z" fill="#D6EEFB"/>
<path d="M715.48 -3.05176e-05L660 31.792L879.711 157.563V-3.05176e-05H715.48Z" fill="#F4FBFE"/>
<path d="M0 6.10352e-05V279.996L113.659 345.023L660.289 31.7907L604.753 6.10352e-05H0Z" fill="#F4FBFE"/>
<path d="M697 533.475H880.395V428L697 533.475Z" fill="#D6EEFB"/>
<path d="M880.341 156.772L660.63 30.9998L114 344.232L443.142 532.542H696.946L880.341 427.068V156.772Z" fill="white"/>
<path d="M0 410.156L113.659 345.027L0 280V410.156Z" fill="#D6EEFB"/>
<path d="M0 410.129V533.311H442.801L113.659 345L0 410.129Z" fill="#F4FBFE"/>
</svg>
