<svg width="455" height="407" viewBox="0 0 455 407" fill="none" xmlns="http://www.w3.org/2000/svg">
<path d="M385.073 235.923C374.847 230.019 366.557 215.72 366.557 203.987C366.557 199.633 367.711 196.267 369.669 194.035C364.057 194.44 360.261 199.139 360.261 207.067C360.261 218.801 368.552 233.1 378.777 239.003C385.201 242.712 390.843 242.203 394.157 238.412C391.475 238.609 388.38 237.832 385.073 235.923" fill="#7FB7E7"/>
<path d="M378.777 239.003C368.552 233.099 360.261 218.801 360.261 207.067C360.261 195.333 368.552 190.607 378.777 196.511C389.003 202.415 397.292 216.713 397.292 228.447C397.292 240.181 389.003 244.907 378.777 239.003ZM403.068 232.051C403.068 230.583 402.94 229.079 402.752 227.561L410.236 226.615C409.475 222.848 408.321 219.037 406.844 215.284L398.316 212.705C396.828 209.516 395.039 206.431 393.008 203.551L395.052 194.944C392.524 191.789 389.784 188.885 386.884 186.337L382.293 192.275C381.067 191.351 379.821 190.484 378.541 189.745C377.263 189.007 376.016 188.433 374.789 187.943L370.199 176.704C367.299 175.903 364.559 175.644 362.031 175.88L364.075 186.845C362.044 187.381 360.255 188.401 358.767 189.872L350.239 182.604C348.761 184.651 347.608 187.129 346.847 190.017L354.331 199.607C354.143 200.904 354.015 202.261 354.015 203.729C354.015 205.196 354.143 206.701 354.331 208.217L346.847 209.164C347.608 212.932 348.761 216.741 350.239 220.495L358.767 223.073C360.255 226.264 362.044 229.348 364.075 232.228L362.031 240.835C364.559 243.989 367.299 246.893 370.199 249.443L374.789 243.504C376.016 244.429 377.263 245.296 378.541 246.035C379.82 246.772 381.067 247.345 382.293 247.837L386.884 259.075C389.784 259.876 392.524 260.136 395.052 259.899L393.008 248.933C395.039 248.397 396.828 247.379 398.316 245.908L406.844 253.175C408.321 251.128 409.475 248.649 410.236 245.761L402.752 236.173C402.94 234.875 403.068 233.517 403.068 232.051Z" fill="#AED2F0"/>
<path d="M381.961 183.823L377.372 172.584L370.199 176.704L374.789 187.943L381.961 183.823Z" fill="#7FB7E7"/>
<path d="M374.789 187.943C376.016 188.433 377.262 189.007 378.541 189.745C379.821 190.484 381.066 191.351 382.293 192.275L386.884 186.337L386.881 186.339C386.881 186.339 386.106 185.852 385.713 185.625C384.434 184.887 383.188 184.315 381.961 183.823L374.789 187.943" fill="#D6EEFB"/>
<path d="M377.372 172.584C374.471 171.784 371.731 171.524 369.204 171.76L362.031 175.88C364.559 175.644 367.299 175.903 370.199 176.704L377.372 172.584Z" fill="#D6EEFB"/>
<path d="M402.224 190.824C399.697 187.671 396.956 184.765 394.056 182.217L386.884 186.337C389.784 188.885 392.524 191.791 395.052 194.944L402.224 190.824Z" fill="#D6EEFB"/>
<path d="M395.052 194.944L393.008 203.551L400.18 199.431L402.224 190.824L395.052 194.944Z" fill="#7FB7E7"/>
<path d="M393.008 203.551C395.038 206.431 396.828 209.516 398.316 212.705L405.488 208.587C404 205.397 402.21 202.312 400.18 199.431L393.008 203.551Z" fill="#7FB7E7"/>
<path d="M398.316 212.705L406.844 215.284L414.016 211.165L405.488 208.587L398.316 212.705Z" fill="#D6EEFB"/>
<path d="M406.844 215.284C408.321 219.037 409.474 222.848 410.236 226.615L417.408 222.495C416.646 218.728 415.493 214.917 414.016 211.165L406.844 215.284Z" fill="#7FB7E7"/>
<path d="M364.075 186.845L363.48 183.656L357.412 178.484L350.239 182.604L358.767 189.872C360.255 188.401 362.044 187.381 364.075 186.845Z" fill="#7FB7E7"/>
<path d="M410.236 245.761C409.474 248.649 408.321 251.128 406.844 253.175L414.016 249.056C415.493 247.008 416.646 244.531 417.408 241.641L410.236 245.761Z" fill="#7FB7E7"/>
<path d="M409.924 232.053C410.113 230.755 410.24 229.399 410.24 227.931C410.24 227.499 410.212 227.059 410.189 226.621L402.752 227.561C402.94 229.079 403.068 230.583 403.068 232.051C403.068 233.517 402.94 234.875 402.752 236.173L409.924 232.053Z" fill="#7FB7E7"/>
<path d="M402.752 236.173L410.236 245.761L417.408 241.641L409.924 232.053L402.752 236.173Z" fill="#D6EEFB"/>
<path d="M398.316 245.908C396.828 247.379 395.038 248.397 393.008 248.933L395.052 259.899L402.224 255.779L400.774 248.003L398.316 245.908Z" fill="#7FB7E7"/>
<path d="M354.061 204.929L346.847 209.164L354.331 208.217C354.193 207.109 354.108 206.015 354.061 204.929Z" fill="#D6EEFB"/>
<path d="M374.789 243.504L370.199 249.443L377.424 245.331C376.535 244.76 375.655 244.157 374.789 243.504" fill="#7FB7E7"/>
<path d="M410.191 226.648C410.191 226.639 410.189 226.629 410.189 226.621L410.236 226.615L410.565 226.425C410.576 226.477 410.587 226.529 410.596 226.581L410.191 226.648ZM395.052 194.944C392.623 191.913 389.997 189.112 387.223 186.637C389.997 189.112 392.623 191.913 395.052 194.944Z" fill="white"/>
<path d="M409.743 226.677C408.981 223.043 407.867 219.371 406.443 215.753L397.915 213.173C396.427 209.984 394.637 206.899 392.607 204.019L394.651 195.412C392.264 192.435 389.684 189.692 386.964 187.249L387.161 186.583C387.183 186.601 387.203 186.619 387.223 186.637C389.997 189.112 392.623 191.913 395.052 194.944L393.008 203.551C395.039 206.431 396.828 209.516 398.316 212.705L406.844 215.284C408.321 219.037 409.475 222.848 410.236 226.615L410.189 226.621L409.743 226.677" fill="white"/>
<path d="M395.052 194.944C392.622 191.913 389.997 189.112 387.222 186.637C387.202 186.619 387.182 186.601 387.161 186.583L387.245 186.304C390.108 188.82 392.816 191.684 395.317 194.792L395.052 194.944" fill="white"/>
<path d="M393.008 203.551L395.052 194.944L395.317 194.792C395.349 194.832 395.38 194.871 395.412 194.911L393.417 203.316L393.008 203.551Z" fill="white"/>
<path d="M398.316 212.705C396.828 209.516 395.038 206.431 393.008 203.551L393.417 203.316L393.369 203.517C395.37 206.356 397.137 209.395 398.613 212.536L398.316 212.705Z" fill="white"/>
<path d="M406.844 215.284L398.316 212.705L398.613 212.536C398.635 212.581 398.656 212.627 398.677 212.672L407.007 215.191L406.844 215.284" fill="white"/>
<path d="M410.236 226.615C409.474 222.848 408.321 219.037 406.844 215.284L407.006 215.191L407.205 215.251C408.661 218.952 409.804 222.709 410.565 226.425L410.236 226.615Z" fill="white"/>
<path d="M409.752 226.721C409.749 226.707 409.745 226.692 409.743 226.677L410.189 226.621C410.189 226.629 410.191 226.639 410.191 226.648L409.752 226.721" fill="white"/>
<path d="M387.088 241.547C384.588 241.547 381.767 240.729 378.777 239.003C377.229 238.109 375.727 237.024 374.291 235.784C375.727 237.024 377.229 238.109 378.777 239.003C381.755 240.721 384.564 241.535 387.052 241.535C388.529 241.535 389.893 241.248 391.112 240.693C391.164 240.681 391.216 240.667 391.267 240.652C390.019 241.241 388.613 241.547 387.088 241.547" fill="white"/>
<path d="M387.052 241.535C384.564 241.535 381.755 240.721 378.777 239.003C377.229 238.109 375.727 237.024 374.291 235.784C371.947 233.763 369.781 231.331 367.887 228.653V228.423C370.955 232.781 374.741 236.495 378.84 238.861C381.823 240.583 384.637 241.396 387.131 241.396C388.356 241.396 389.504 241.2 390.556 240.817C390.741 240.777 390.929 240.74 391.112 240.693C389.893 241.248 388.529 241.535 387.052 241.535" fill="white"/>
<path d="M386.435 241.901C383.94 241.901 381.121 241.087 378.137 239.364C374.347 237.176 370.821 233.833 367.887 229.896V228.653C369.781 231.331 371.947 233.763 374.291 235.784C375.727 237.024 377.229 238.109 378.777 239.003C381.767 240.729 384.588 241.547 387.088 241.547C388.613 241.547 390.019 241.241 391.267 240.652C391.285 240.647 391.304 240.641 391.323 240.636C389.905 241.468 388.256 241.901 386.435 241.901" fill="white"/>
<path d="M395.183 248.131C395.997 247.653 396.756 247.083 397.444 246.403L397.615 246.548C396.868 247.179 396.055 247.708 395.183 248.131" fill="white"/>
<path d="M394.385 248.561C394.656 248.427 394.923 248.284 395.183 248.131C396.055 247.708 396.868 247.179 397.615 246.548L397.759 246.672C396.745 247.488 395.615 248.117 394.385 248.561" fill="white"/>
<path d="M394.762 259.923C394.675 259.919 394.687 259.915 394.759 259.909L394.762 259.923ZM394.759 259.909L392.806 249.428C392.636 249.348 392.795 249.251 393.048 249.144L395.051 259.892C394.926 259.9 394.82 259.905 394.759 259.909" fill="white"/>
<path d="M395.064 259.892L395.383 259.708L395.412 259.865C395.292 259.876 395.172 259.885 395.064 259.892" fill="white"/>
<path d="M395.051 259.892L393.048 249.144C393.151 249.101 393.271 249.056 393.389 249.011L395.383 259.708L395.064 259.892C395.06 259.892 395.055 259.892 395.051 259.892" fill="white"/>
<path d="M407.205 253.141L407.19 252.976L407.412 252.849C407.344 252.948 407.274 253.045 407.205 253.141Z" fill="white"/>
<path d="M407.169 252.709L407.157 252.548C408.313 250.709 409.248 248.585 409.889 246.152L402.405 236.563C402.593 235.265 402.721 233.908 402.721 232.44C402.721 230.973 402.593 229.468 402.405 227.952L402.796 227.923C402.96 229.317 403.068 230.699 403.068 232.051C403.068 233.517 402.94 234.875 402.752 236.173L410.236 245.761C409.531 248.433 408.492 250.756 407.169 252.709" fill="white"/>
<path d="M407.191 252.976L407.169 252.709C408.492 250.756 409.531 248.433 410.236 245.761L410.503 245.608L410.596 245.728C409.871 248.48 408.791 250.86 407.412 252.849L407.191 252.976" fill="white"/>
<path d="M402.752 236.173C402.94 234.875 403.068 233.517 403.068 232.051C403.068 230.699 402.96 229.317 402.796 227.923L403.149 227.896C403.313 229.287 403.429 230.668 403.429 232.017C403.429 233.413 403.313 234.709 403.14 235.951L402.752 236.173Z" fill="white"/>
<path d="M410.236 245.761L402.752 236.173L403.14 235.951C403.131 236.013 403.121 236.076 403.113 236.14L410.503 245.608L410.236 245.761Z" fill="white"/>
<path d="M381.891 191.973C380.793 191.163 379.681 190.403 378.541 189.745C378.221 189.56 377.904 189.387 377.588 189.221C377.904 189.387 378.221 189.56 378.541 189.745C379.681 190.403 380.793 191.163 381.891 191.973ZM370.127 176.684C370.107 176.679 370.088 176.673 370.068 176.668C370.088 176.673 370.107 176.679 370.127 176.684ZM369.968 176.641C369.935 176.632 369.9 176.623 369.867 176.615C369.9 176.623 369.935 176.632 369.968 176.641ZM369.812 176.6C369.791 176.595 369.769 176.589 369.748 176.584C369.769 176.589 369.791 176.595 369.812 176.6ZM369.724 176.577C369.104 176.417 368.492 176.283 367.887 176.173C368.492 176.283 369.104 176.417 369.724 176.577Z" fill="white"/>
<path d="M381.98 192.573C380.755 191.648 379.508 190.781 378.229 190.044C376.949 189.304 375.703 188.732 374.477 188.241L369.887 177.003C369.244 176.825 368.571 176.689 367.887 176.588V176.173C368.492 176.283 369.104 176.417 369.724 176.577C369.732 176.58 369.74 176.581 369.748 176.584C369.769 176.589 369.791 176.595 369.812 176.6C369.831 176.605 369.848 176.609 369.867 176.615C369.9 176.623 369.935 176.632 369.968 176.641C370.001 176.651 370.035 176.659 370.068 176.668C370.088 176.673 370.107 176.679 370.127 176.684C370.151 176.691 370.175 176.697 370.199 176.704L374.789 187.943C375.709 188.311 376.64 188.725 377.588 189.221C377.904 189.387 378.221 189.56 378.541 189.745C379.681 190.403 380.793 191.163 381.891 191.973C381.952 192.019 382.012 192.064 382.073 192.111L381.98 192.573" fill="white"/>
<path d="M374.789 187.943L370.199 176.704L370.355 176.615C370.423 176.633 370.492 176.652 370.56 176.671L375.093 187.768L374.789 187.943" fill="white"/>
<path d="M382.073 192.111C382.012 192.064 381.952 192.019 381.89 191.973C380.793 191.163 379.681 190.403 378.541 189.745C378.221 189.56 377.904 189.387 377.588 189.221C376.64 188.725 375.709 188.311 374.789 187.943L375.093 187.768L375.15 187.909C376.376 188.4 377.622 188.973 378.902 189.712C379.998 190.344 381.068 191.083 382.124 191.86L382.073 192.111" fill="white"/>
<path d="M370.199 176.704C370.175 176.697 370.151 176.691 370.127 176.684C370.107 176.679 370.088 176.673 370.068 176.668C370.035 176.659 370.001 176.651 369.968 176.641C369.935 176.632 369.9 176.623 369.867 176.615C369.848 176.609 369.831 176.605 369.812 176.6C369.791 176.595 369.769 176.589 369.748 176.584C369.74 176.581 369.732 176.58 369.724 176.577C369.104 176.417 368.492 176.283 367.887 176.173V176.076C368.695 176.212 369.517 176.391 370.355 176.615L370.199 176.704" fill="white"/>
<path d="M370.56 249.408C370.521 249.373 370.481 249.339 370.442 249.303L370.797 249.101L370.56 249.408Z" fill="white"/>
<path d="M370.364 249.229C370.268 249.141 370.175 249.051 370.079 248.965L373.917 244C374.021 244.079 374.127 244.152 374.231 244.227L370.364 249.229Z" fill="white"/>
<path d="M370.443 249.303C370.416 249.279 370.39 249.255 370.364 249.229L374.231 244.227C374.303 244.277 374.375 244.328 374.447 244.38L370.798 249.101L370.443 249.303" fill="white"/>
<path d="M382.413 147.865C367.031 138.985 354.561 117.477 354.561 99.8266C354.561 93.2799 356.296 88.2132 359.243 84.8559C350.801 85.4666 345.091 92.5346 345.091 104.461C345.091 122.112 357.56 143.619 372.943 152.5C382.607 158.079 391.092 157.312 396.079 151.612C392.043 151.907 387.388 150.737 382.413 147.865Z" fill="#7FB7E7"/>
<path d="M372.943 152.5C357.561 143.619 345.091 122.112 345.091 104.461C345.091 86.8106 357.561 79.7013 372.943 88.5813C388.324 97.4626 400.793 118.969 400.793 136.621C400.793 154.271 388.324 161.381 372.943 152.5V152.5ZM409.483 142.041C409.483 139.833 409.291 137.571 409.007 135.289L420.264 133.865C419.119 128.199 417.384 122.467 415.161 116.821L402.333 112.943C400.095 108.145 397.404 103.504 394.349 99.1706L397.423 86.2253C393.621 81.4799 389.5 77.1106 385.137 73.2773L378.232 82.2093C376.387 80.8186 374.512 79.5146 372.588 78.4039C370.664 77.2933 368.789 76.4319 366.944 75.6933L360.039 58.7866C355.676 57.5826 351.555 57.1919 347.753 57.5479L350.827 74.0426C347.772 74.8493 345.081 76.3826 342.843 78.5959L330.015 67.6626C327.792 70.7413 326.057 74.4693 324.912 78.8133L336.169 93.2373C335.885 95.1906 335.693 97.2306 335.693 99.4399C335.693 101.647 335.885 103.911 336.169 106.191L324.912 107.615C326.057 113.281 327.792 119.013 330.015 124.659L342.843 128.539C345.081 133.336 347.772 137.976 350.827 142.309L347.753 155.255C351.555 160 355.676 164.369 360.039 168.203L366.944 159.271C368.789 160.663 370.664 161.965 372.588 163.076C374.512 164.187 376.387 165.049 378.232 165.788L385.137 182.693C389.5 183.897 393.621 184.288 397.423 183.932L394.349 167.437C397.404 166.631 400.095 165.099 402.333 162.885L415.161 173.819C417.384 170.739 419.119 167.011 420.264 162.665L409.007 148.243C409.291 146.291 409.483 144.248 409.483 142.041Z" fill="#AED2F0"/>
<path d="M377.733 69.4959L370.828 52.5906L360.039 58.7866L366.944 75.6932L377.733 69.4959Z" fill="#7FB7E7"/>
<path d="M366.944 75.6933C368.789 76.432 370.664 77.2933 372.588 78.404C374.512 79.5147 376.387 80.8187 378.232 82.2094L385.136 73.2787L385.133 73.28C385.133 73.28 383.968 72.548 383.377 72.2067C381.453 71.096 379.577 70.2347 377.733 69.496L366.944 75.6933" fill="#D6EEFB"/>
<path d="M370.828 52.5906C366.465 51.3853 362.343 50.996 358.541 51.3506L347.752 57.548C351.555 57.192 355.676 57.5826 360.039 58.7866L370.828 52.5906Z" fill="#D6EEFB"/>
<path d="M408.212 80.028C404.411 75.2827 400.288 70.9134 395.927 67.08L385.137 73.2787C389.5 77.112 393.621 81.48 397.423 86.2253L408.212 80.028" fill="#D6EEFB"/>
<path d="M397.423 86.2253L394.35 99.1707L405.139 92.9733L408.212 80.028L397.423 86.2253Z" fill="#7FB7E7"/>
<path d="M394.35 99.1706C397.404 103.504 400.095 108.145 402.334 112.943L413.123 106.745C410.884 101.948 408.194 97.3066 405.139 92.9733L394.35 99.1706Z" fill="#7FB7E7"/>
<path d="M402.333 112.943L415.161 116.821L425.95 110.624L413.122 106.745L402.333 112.943Z" fill="#D6EEFB"/>
<path d="M415.161 116.821C417.384 122.467 419.118 128.199 420.264 133.865L431.053 127.668C429.908 122.001 428.173 116.271 425.95 110.624L415.161 116.821Z" fill="#7FB7E7"/>
<path d="M350.827 74.0426L349.932 69.2453L340.804 61.4653L330.015 67.6626L342.843 78.5959C345.081 76.3826 347.772 74.8493 350.827 74.0426Z" fill="#7FB7E7"/>
<path d="M420.264 162.665C419.118 167.011 417.384 170.739 415.161 173.819L425.95 167.621C428.173 164.541 429.908 160.813 431.053 156.469L420.264 162.665Z" fill="#7FB7E7"/>
<path d="M419.795 142.045C420.079 140.093 420.271 138.052 420.271 135.844C420.271 135.195 420.228 134.533 420.194 133.873L409.007 135.289C409.291 137.571 409.483 139.833 409.483 142.041C409.483 144.248 409.291 146.291 409.007 148.243L419.795 142.045" fill="#7FB7E7"/>
<path d="M409.007 148.243L420.264 162.665L431.054 156.469L419.795 142.045L409.007 148.243" fill="#D6EEFB"/>
<path d="M402.334 162.885C400.095 165.099 397.404 166.631 394.35 167.437L397.423 183.932L408.212 177.735L406.032 166.037L402.334 162.885Z" fill="#7FB7E7"/>
<path d="M335.764 101.245L324.912 107.615L336.169 106.191C335.963 104.525 335.835 102.877 335.764 101.245Z" fill="#D6EEFB"/>
<path d="M366.944 159.271L360.039 168.203L370.908 162.017C369.569 161.16 368.245 160.252 366.944 159.271" fill="#7FB7E7"/>
<path d="M347.988 75.2959C348.476 75.0546 348.97 74.8186 349.483 74.6212L349.514 74.7879C348.99 74.9252 348.491 75.1146 347.988 75.2959Z" fill="white"/>
<path d="M325.579 108.109C325.541 107.928 325.491 107.745 325.455 107.564L334.801 106.381C334.823 106.567 334.833 106.749 334.857 106.935L325.579 108.109Z" fill="white"/>
<path d="M420.196 133.915C420.195 133.901 420.195 133.888 420.194 133.873L420.264 133.865L420.759 133.58C420.775 133.659 420.791 133.737 420.807 133.815L420.196 133.915V133.915ZM419.59 130.805C418.48 126.141 416.986 121.453 415.162 116.821L402.334 112.943L415.162 116.821L415.407 116.681L415.162 116.821C416.986 121.453 418.48 126.141 419.59 130.805ZM402.334 112.943C400.095 108.145 397.404 103.504 394.35 99.1707C397.404 103.504 400.095 108.145 402.334 112.943ZM397.423 86.2253C396.424 84.9786 395.404 83.7587 394.364 82.568C395.404 83.7587 396.424 84.9786 397.423 86.2253L397.823 85.996L397.423 86.2253Z" fill="white"/>
<path d="M419.523 133.959C418.377 128.491 416.7 122.969 414.557 117.525L401.729 113.647C399.491 108.849 396.8 104.208 393.745 99.8746L396.819 86.9293C393.231 82.4506 389.349 78.324 385.257 74.6493L385.555 73.6466C388.621 76.3746 391.567 79.368 394.364 82.568C395.404 83.7586 396.424 84.9786 397.423 86.2253L394.349 99.1706C397.404 103.504 400.095 108.145 402.333 112.943L415.161 116.821C416.985 121.453 418.48 126.141 419.589 130.805C419.833 131.827 420.057 132.847 420.264 133.865L420.193 133.873L419.523 133.959" fill="white"/>
<path d="M397.423 86.2253C396.424 84.9787 395.404 83.7587 394.364 82.568C391.567 79.368 388.621 76.3747 385.555 73.6467L385.68 73.2267C389.988 77.012 394.06 81.32 397.823 85.996L397.423 86.2253Z" fill="white"/>
<path d="M394.35 99.1707L397.423 86.2253L397.823 85.996C397.871 86.056 397.919 86.1147 397.966 86.1747L394.964 98.8173L394.35 99.1707" fill="white"/>
<path d="M402.334 112.943C400.095 108.145 397.404 103.504 394.35 99.1706L394.964 98.8173L394.892 99.1199C397.903 103.391 400.562 107.961 402.78 112.687L402.334 112.943" fill="white"/>
<path d="M415.161 116.821L402.333 112.943L402.78 112.687C402.812 112.755 402.844 112.823 402.877 112.892L415.406 116.681L415.161 116.821Z" fill="white"/>
<path d="M420.264 133.865C420.057 132.847 419.833 131.827 419.589 130.805C418.48 126.141 416.985 121.453 415.161 116.821L415.406 116.681L415.704 116.772C417.896 122.339 419.613 127.989 420.758 133.58L420.264 133.865" fill="white"/>
<path d="M419.536 134.024C419.532 134.003 419.526 133.98 419.522 133.959L420.193 133.873C420.194 133.888 420.194 133.901 420.196 133.915L419.536 134.024" fill="white"/>
<path d="M385.444 156.325C381.684 156.325 377.439 155.096 372.943 152.5C372.928 152.491 372.913 152.483 372.897 152.473C372.913 152.483 372.928 152.491 372.943 152.5C377.421 155.085 381.648 156.308 385.389 156.308C387.613 156.308 389.665 155.877 391.499 155.043C391.576 155.024 391.653 155.003 391.729 154.98C389.853 155.867 387.739 156.325 385.444 156.325V156.325ZM345.091 104.389C345.092 104.38 345.092 104.371 345.092 104.36C345.092 104.369 345.092 104.38 345.091 104.389ZM345.092 104.319C345.092 104.307 345.092 104.295 345.092 104.283C345.092 104.295 345.092 104.307 345.092 104.319ZM345.092 104.248C345.092 104.235 345.092 104.221 345.092 104.208C345.092 104.221 345.092 104.235 345.092 104.248ZM345.092 104.177C345.092 104.164 345.092 104.148 345.093 104.135C345.092 104.149 345.092 104.163 345.092 104.177ZM345.093 104.108C345.093 104.092 345.093 104.076 345.093 104.06C345.093 104.076 345.093 104.092 345.093 104.108ZM345.093 104.039C345.093 104.02 345.095 104.003 345.095 103.985C345.095 104.003 345.093 104.02 345.093 104.039ZM345.095 103.971C345.095 103.951 345.095 103.931 345.096 103.912C345.095 103.932 345.095 103.951 345.095 103.971ZM345.096 103.901C345.096 103.881 345.096 103.861 345.096 103.841C345.096 103.861 345.096 103.881 345.096 103.901ZM345.096 103.833C345.175 99.212 346.125 95.3413 347.768 92.3173C347.599 92.6386 347.436 92.968 347.281 93.3067C345.939 96.164 345.167 99.696 345.096 103.833Z" fill="white"/>
<path d="M385.389 156.308C381.648 156.308 377.421 155.085 372.943 152.5C372.928 152.491 372.913 152.483 372.897 152.473C358.243 143.985 346.241 124.041 345.169 106.915C345.117 106.089 345.091 105.271 345.091 104.461C345.091 104.437 345.091 104.413 345.091 104.389C345.092 104.38 345.092 104.369 345.092 104.36C345.092 104.347 345.092 104.332 345.092 104.319C345.092 104.307 345.092 104.295 345.092 104.283C345.092 104.271 345.092 104.26 345.092 104.248C345.092 104.235 345.092 104.221 345.092 104.208C345.092 104.197 345.092 104.188 345.092 104.177C345.092 104.163 345.092 104.149 345.093 104.135C345.093 104.125 345.093 104.117 345.093 104.108C345.093 104.092 345.093 104.076 345.093 104.06C345.093 104.053 345.093 104.045 345.093 104.039C345.093 104.02 345.095 104.003 345.095 103.985C345.095 103.98 345.095 103.976 345.095 103.971C345.095 103.951 345.095 103.932 345.096 103.912C345.096 103.909 345.096 103.905 345.096 103.901C345.096 103.881 345.096 103.861 345.096 103.841C345.096 103.839 345.096 103.836 345.096 103.833C345.167 99.696 345.939 96.164 347.281 93.3067C345.932 96.2707 345.185 99.9413 345.185 104.248C345.185 121.899 357.655 143.405 373.037 152.287C377.523 154.877 381.757 156.1 385.508 156.1C387.352 156.1 389.079 155.804 390.661 155.229C390.941 155.168 391.223 155.112 391.499 155.043C389.665 155.877 387.613 156.308 385.389 156.308" fill="white"/>
<path d="M384.461 156.86C380.708 156.86 376.468 155.635 371.98 153.043C356.597 144.161 344.128 122.653 344.128 105.003C344.128 96.5493 347.003 90.544 351.679 87.5333C350.123 88.7653 348.803 90.368 347.768 92.3173C346.125 95.3413 345.175 99.212 345.096 103.833C345.096 103.836 345.096 103.839 345.096 103.841C345.096 103.861 345.096 103.881 345.096 103.901C345.096 103.905 345.096 103.909 345.096 103.912C345.095 103.931 345.095 103.951 345.095 103.971C345.095 103.976 345.095 103.98 345.095 103.985C345.095 104.003 345.093 104.02 345.093 104.039C345.093 104.045 345.093 104.053 345.093 104.06C345.093 104.076 345.093 104.092 345.093 104.108C345.093 104.117 345.093 104.125 345.093 104.135C345.092 104.148 345.092 104.164 345.092 104.177C345.092 104.188 345.092 104.197 345.092 104.208C345.092 104.221 345.092 104.235 345.092 104.248C345.092 104.26 345.092 104.271 345.092 104.283C345.092 104.295 345.092 104.307 345.092 104.319C345.092 104.332 345.092 104.347 345.092 104.36C345.092 104.371 345.092 104.38 345.091 104.389C345.091 104.413 345.091 104.437 345.091 104.461C345.091 105.271 345.117 106.089 345.169 106.915C346.241 124.041 358.243 143.985 372.897 152.473C372.913 152.483 372.928 152.491 372.943 152.5C377.439 155.096 381.684 156.325 385.444 156.325C387.739 156.325 389.853 155.867 391.729 154.98C391.759 154.972 391.785 154.964 391.813 154.956C389.683 156.207 387.201 156.86 384.461 156.86Z" fill="white"/>
<path d="M397.623 166.229C398.845 165.511 399.987 164.652 401.021 163.631L401.279 163.849C400.155 164.799 398.933 165.593 397.623 166.229Z" fill="white"/>
<path d="M396.42 166.877C396.829 166.675 397.229 166.459 397.623 166.229C398.933 165.593 400.155 164.799 401.279 163.849L401.496 164.035C399.971 165.264 398.271 166.211 396.42 166.877" fill="white"/>
<path d="M342.404 78.8879C342.244 78.8879 342.215 78.832 342.265 78.7413L342.437 78.8866C342.425 78.8866 342.415 78.8879 342.404 78.8879V78.8879ZM342.265 78.7413L330.472 68.6893C330.021 68.6399 330.111 68.3093 330.337 67.9373L342.604 78.3919C342.445 78.5279 342.316 78.652 342.265 78.7413Z" fill="white"/>
<path d="M342.604 78.392L330.337 67.9373C330.403 67.8306 330.479 67.72 330.557 67.612L342.911 78.14C342.805 78.2253 342.699 78.3106 342.604 78.392" fill="white"/>
<path d="M396.986 183.968C396.856 183.961 396.873 183.956 396.983 183.948L396.986 183.968ZM396.983 183.948L394.044 168.181C393.789 168.06 394.028 167.913 394.408 167.755L397.422 183.923C397.234 183.935 397.075 183.941 396.983 183.948Z" fill="white"/>
<path d="M397.441 183.921L397.921 183.645L397.965 183.881C397.785 183.899 397.603 183.911 397.441 183.921Z" fill="white"/>
<path d="M397.422 183.923L394.408 167.755C394.564 167.689 394.744 167.623 394.923 167.553L397.922 183.645L397.442 183.921C397.435 183.921 397.428 183.923 397.422 183.923" fill="white"/>
<path d="M415.704 173.768L415.684 173.519L416.016 173.328C415.913 173.476 415.809 173.623 415.704 173.768V173.768ZM409.482 142.041C409.482 140.023 409.321 137.959 409.077 135.877C409.321 137.959 409.482 140.023 409.482 142.041Z" fill="white"/>
<path d="M415.652 173.117L415.632 172.873C417.372 170.108 418.777 166.913 419.743 163.253L408.485 148.829C408.768 146.877 408.96 144.836 408.96 142.628C408.96 140.42 408.768 138.157 408.485 135.877L409.072 135.832C409.073 135.848 409.076 135.863 409.077 135.877C409.321 137.959 409.483 140.023 409.483 142.041C409.483 144.024 409.327 145.873 409.089 147.645C409.063 147.845 409.035 148.044 409.007 148.243L420.264 162.665C419.204 166.687 417.64 170.179 415.652 173.117Z" fill="white"/>
<path d="M415.684 173.519L415.652 173.117C417.64 170.179 419.204 166.687 420.264 162.665L420.665 162.435L420.806 162.616C419.714 166.756 418.089 170.336 416.016 173.328L415.684 173.519" fill="white"/>
<path d="M409.007 148.243C409.035 148.044 409.063 147.845 409.09 147.645C409.327 145.873 409.483 144.024 409.483 142.041C409.483 140.023 409.322 137.959 409.078 135.877C409.076 135.863 409.074 135.848 409.072 135.832L409.604 135.792C409.852 137.885 410.026 139.963 410.026 141.991C410.026 144.091 409.851 146.041 409.59 147.907L409.007 148.243" fill="white"/>
<path d="M420.264 162.665L409.007 148.243L409.59 147.907C409.576 148.003 409.563 148.097 409.55 148.192L420.666 162.435L420.264 162.665" fill="white"/>
<path d="M377.901 81.9613C376.163 80.664 374.397 79.4493 372.588 78.404C374.397 79.4493 376.163 80.664 377.901 81.9613ZM360.039 58.7866C356.705 57.8666 353.511 57.4213 350.493 57.4213C350.005 57.4213 349.523 57.4333 349.044 57.4573C349.523 57.4333 350.005 57.4213 350.493 57.4213C353.511 57.4213 356.704 57.8666 360.039 58.7866ZM348.296 57.5026C348.505 57.4866 348.716 57.4733 348.927 57.4626C348.716 57.4733 348.505 57.4866 348.296 57.5026Z" fill="white"/>
<path d="M377.761 82.6572C375.916 81.2666 374.043 79.9639 372.119 78.8532C370.193 77.7412 368.319 76.8799 366.473 76.1412L359.568 59.2359C356.541 58.3999 353.051 58.1852 350.092 58.1852C349.515 58.1852 348.957 58.1932 348.428 58.2066L348.296 57.5026C348.505 57.4866 348.716 57.4732 348.927 57.4626C348.965 57.4599 349.004 57.4586 349.044 57.4572C349.523 57.4332 350.005 57.4212 350.493 57.4212C353.511 57.4212 356.705 57.8666 360.039 58.7866L366.944 75.6932C368.789 76.4319 370.664 77.2932 372.588 78.4039C374.397 79.4492 376.163 80.6639 377.901 81.9612L377.761 82.6572" fill="white"/>
<path d="M366.944 75.6932L360.039 58.7866L360.273 58.6532C360.376 58.6799 360.479 58.7079 360.583 58.7372L367.4 75.4306L366.944 75.6932" fill="white"/>
<path d="M377.901 81.9613C376.162 80.664 374.397 79.4493 372.588 78.404C370.664 77.2933 368.789 76.432 366.944 75.6933L367.4 75.4306L367.486 75.6427C369.332 76.3813 371.207 77.2426 373.131 78.3533C374.781 79.3066 376.388 80.416 377.977 81.5853L377.901 81.9613" fill="white"/>
<path d="M360.039 58.7866C356.704 57.8666 353.511 57.4213 350.494 57.4213C350.006 57.4213 349.523 57.4333 349.044 57.4573C349.004 57.4586 348.966 57.46 348.927 57.4626C348.716 57.4733 348.506 57.4866 348.296 57.5026L348.295 57.4973C349.192 57.4133 350.106 57.3706 351.036 57.3706C353.96 57.3706 357.051 57.7893 360.274 58.6533L360.039 58.7866" fill="white"/>
<path d="M365.994 160.499C365.965 160.404 365.934 160.309 365.904 160.215C365.97 160.263 366.037 160.309 366.104 160.357L365.994 160.499Z" fill="white"/>
<path d="M366.14 160.961C366.093 160.807 366.044 160.652 365.995 160.499L366.104 160.357C366.213 160.433 366.321 160.509 366.428 160.589L366.14 160.961Z" fill="white"/>
<path d="M386.531 51.3467C386.616 49.564 387.842 48.7854 389.268 49.6094C390.694 50.432 391.782 52.5454 391.696 54.3294C391.612 56.1134 390.387 56.892 388.96 56.068C387.534 55.2454 386.447 53.1307 386.531 51.3467" fill="#EC2680"/>
<path d="M378.549 264.728C378.605 263.541 379.42 263.024 380.369 263.572C381.319 264.119 382.041 265.525 381.985 266.712C381.929 267.899 381.115 268.416 380.165 267.868C379.216 267.32 378.493 265.915 378.549 264.728Z" fill="#EC2680"/>
<path d="M430.696 178.452C430.496 178.452 430.304 178.363 430.175 178.2C430.004 177.985 429.981 177.688 430.121 177.449L433.317 171.969C433.503 171.649 433.913 171.544 434.229 171.728C434.547 171.915 434.655 172.323 434.469 172.64L432.133 176.645L436.849 175.193C437.197 175.085 437.576 175.283 437.683 175.635C437.792 175.987 437.593 176.36 437.243 176.468L430.893 178.423L430.696 178.452" fill="#EC2680"/>
<path d="M375.33 202.616C377.83 204.059 380.022 206.82 381.274 209.793C381.294 209.841 382.692 209.348 383.245 209.124C384.476 208.627 386.073 208.819 387.821 209.827C391.715 212.076 394.872 217.521 394.872 221.989C394.872 230.156 380.891 232.985 380.891 232.985C380.891 232.985 367.594 215.213 367.594 207.047C367.594 204.817 366.649 204.131 367.92 203.4L370.676 201.943C371.917 201.405 373.546 201.585 375.33 202.616" fill="#D71968"/>
<path d="M372.976 203.887C375.691 205.453 378.043 208.575 379.221 211.835C380.4 209.935 382.752 209.531 385.467 211.097C389.36 213.347 392.517 218.792 392.517 223.26C392.517 231.427 379.221 233.845 379.221 233.845C379.221 233.845 365.925 216.073 365.925 207.907C365.925 203.439 369.081 201.639 372.976 203.887Z" fill="#EC2680"/>
<path d="M379.221 211.835C378.043 208.575 375.691 205.453 372.976 203.887C371.837 203.229 370.763 202.919 369.811 202.919C369.357 202.919 368.931 202.989 368.54 203.127C368.949 202.923 369.393 202.823 369.88 202.823C370.851 202.823 371.985 203.224 373.32 203.995C375.913 205.492 378.165 208.411 379.389 211.512C379.147 211.703 379.26 211.675 379.243 211.8C379.235 211.811 379.228 211.823 379.221 211.835" fill="#F5B3D6"/>
<path d="M379.149 212.013C377.971 208.753 375.304 205.621 372.589 204.055C371.456 203.4 370.388 203.093 369.441 203.093C369.041 203.093 368.663 203.148 368.311 203.255C368.385 203.208 368.461 203.165 368.54 203.127C368.931 202.989 369.357 202.919 369.811 202.919C370.763 202.919 371.837 203.229 372.976 203.887C375.691 205.453 378.043 208.575 379.221 211.835C379.228 211.823 379.235 211.811 379.243 211.8C379.236 211.845 379.212 211.911 379.149 212.013" fill="#FABBDD"/>
<path d="M386.964 231.04C387.12 230.952 387.276 230.861 387.431 230.767C387.533 230.719 387.636 230.669 387.739 230.62C387.485 230.765 387.225 230.905 386.964 231.04" fill="white"/>
<path d="M387.431 230.767C390.16 229.119 392.517 226.699 392.517 223.26C392.517 218.792 389.36 213.347 385.467 211.097C384.331 210.441 383.257 210.131 382.307 210.131C381.879 210.131 381.476 210.195 381.103 210.317C381.485 210.141 381.932 210.044 382.437 210.044C383.332 210.044 384.413 210.349 385.653 211.065C389.548 213.315 392.705 218.76 392.705 223.228C392.705 226.8 390.497 229.04 387.739 230.62C387.636 230.669 387.533 230.719 387.431 230.767" fill="#F5B3D6"/>
<path d="M386.187 231.421C389.26 229.775 392.131 227.223 392.131 223.428C392.131 218.96 388.973 213.515 385.08 211.265C383.952 210.615 382.891 210.312 381.948 210.312C381.548 210.312 381.169 210.367 380.816 210.472C380.907 210.416 381.003 210.364 381.103 210.317C381.476 210.195 381.879 210.131 382.307 210.131C383.257 210.131 384.331 210.441 385.467 211.097C389.36 213.347 392.517 218.792 392.517 223.26C392.517 226.699 390.16 229.119 387.431 230.767C387.276 230.861 387.12 230.952 386.964 231.04C386.708 231.172 386.448 231.299 386.187 231.421" fill="#FABBDD"/>
<path d="M432.724 177.544L431.828 176.557C439.004 170.043 442.797 159.423 442.797 145.844C442.797 112.057 418.841 70.7386 389.396 53.7386L390.063 52.5839C419.875 69.7959 444.131 111.633 444.131 145.844C444.131 159.808 440.187 170.771 432.724 177.544Z" fill="#EC2680"/>
<path d="M453.88 154.789H453.869C453.503 154.784 453.208 154.481 453.213 154.113C453.22 153.675 453.223 153.232 453.223 152.787C453.223 152.419 453.521 152.12 453.889 152.12C454.257 152.12 454.556 152.419 454.556 152.787C454.556 153.239 454.553 153.688 454.547 154.133C454.541 154.497 454.244 154.789 453.88 154.789Z" fill="#AED2F0"/>
<path d="M453.52 161.397L453.455 161.393C453.088 161.359 452.819 161.033 452.855 160.667C452.937 159.807 453.007 158.935 453.063 158.051C453.084 157.684 453.364 157.407 453.769 157.427C454.137 157.449 454.417 157.767 454.393 158.133C454.337 159.033 454.265 159.92 454.183 160.795C454.148 161.139 453.859 161.397 453.52 161.397V161.397ZM452.577 167.944L452.448 167.931C452.085 167.861 451.851 167.511 451.92 167.149C452.085 166.304 452.236 165.444 452.369 164.568C452.425 164.204 452.76 163.959 453.131 164.011C453.493 164.065 453.744 164.407 453.688 164.771C453.551 165.664 453.399 166.541 453.231 167.404C453.168 167.723 452.889 167.944 452.577 167.944ZM450.959 174.357L450.757 174.327C450.407 174.216 450.212 173.84 450.323 173.489C450.581 172.669 450.823 171.832 451.048 170.977C451.141 170.621 451.509 170.411 451.861 170.503C452.219 170.596 452.431 170.961 452.337 171.317C452.107 172.193 451.86 173.051 451.593 173.891C451.504 174.175 451.243 174.357 450.959 174.357V174.357ZM448.563 180.517L448.279 180.453C447.945 180.296 447.803 179.899 447.96 179.565C448.325 178.791 448.673 177.993 449.003 177.176C449.141 176.833 449.529 176.671 449.871 176.807C450.212 176.944 450.377 177.333 450.24 177.675C449.9 178.516 449.541 179.336 449.165 180.135C449.052 180.376 448.812 180.517 448.563 180.517V180.517ZM445.291 186.257C445.16 186.257 445.028 186.22 444.915 186.141C444.611 185.933 444.532 185.519 444.74 185.215C445.228 184.501 445.696 183.764 446.136 183.02C446.321 182.701 446.732 182.6 447.048 182.784C447.365 182.972 447.472 183.38 447.284 183.697C446.831 184.467 446.345 185.231 445.841 185.968C445.711 186.156 445.503 186.257 445.291 186.257V186.257ZM441.084 191.349C440.915 191.349 440.744 191.284 440.613 191.153C440.353 190.895 440.353 190.472 440.613 190.211C441.221 189.601 441.812 188.961 442.372 188.307C442.612 188.028 443.033 187.995 443.312 188.235C443.592 188.473 443.625 188.895 443.385 189.175C442.805 189.855 442.189 190.52 441.556 191.153C441.425 191.284 441.255 191.349 441.084 191.349ZM435.969 195.531C435.752 195.531 435.54 195.425 435.413 195.232C435.209 194.925 435.295 194.512 435.601 194.308C436.323 193.831 437.031 193.32 437.704 192.792C437.993 192.567 438.412 192.613 438.64 192.905C438.867 193.195 438.817 193.613 438.528 193.841C437.825 194.392 437.088 194.923 436.336 195.42C436.223 195.496 436.095 195.531 435.969 195.531V195.531ZM430.115 198.573C429.849 198.573 429.599 198.415 429.495 198.152C429.36 197.809 429.528 197.421 429.868 197.287C430.671 196.969 431.467 196.616 432.235 196.239C432.565 196.076 432.964 196.211 433.127 196.541C433.289 196.871 433.153 197.271 432.823 197.433C432.024 197.828 431.195 198.195 430.361 198.527L430.115 198.573ZM423.76 200.379C423.445 200.379 423.165 200.153 423.105 199.832C423.04 199.471 423.28 199.123 423.641 199.056C424.496 198.9 425.349 198.711 426.176 198.493C426.528 198.396 426.897 198.612 426.989 198.969C427.084 199.324 426.871 199.689 426.515 199.783C425.655 200.009 424.769 200.205 423.881 200.368L423.76 200.379ZM413.219 200.835L413.161 200.832C412.283 200.757 411.392 200.657 410.493 200.531C410.129 200.48 409.875 200.143 409.925 199.779C409.977 199.415 410.323 199.169 410.679 199.211C411.553 199.335 412.417 199.432 413.273 199.504C413.64 199.533 413.913 199.857 413.881 200.224C413.853 200.572 413.561 200.835 413.219 200.835V200.835ZM417.184 200.988C416.817 200.988 416.52 200.693 416.517 200.327C416.515 199.959 416.811 199.657 417.179 199.655C418.047 199.648 418.92 199.613 419.779 199.548C420.143 199.52 420.465 199.797 420.493 200.164C420.521 200.531 420.245 200.851 419.877 200.879C418.991 200.945 418.085 200.981 417.189 200.988H417.184" fill="#AED2F0"/>
<path d="M406.61 199.815L406.468 199.8C406.029 199.703 405.592 199.6 405.152 199.491C404.794 199.403 404.577 199.04 404.665 198.684C404.753 198.327 405.113 198.109 405.472 198.196C405.902 198.304 406.329 198.404 406.753 198.497C407.113 198.577 407.341 198.932 407.261 199.292C407.193 199.603 406.917 199.815 406.61 199.815" fill="#AED2F0"/>
<path d="M321.232 94.2839C320.917 94.2839 320.636 94.0573 320.577 93.736C320.497 93.2946 320.419 92.8533 320.347 92.4133C320.285 92.0506 320.531 91.7066 320.895 91.6453C321.251 91.5813 321.6 91.8306 321.661 92.1946C321.735 92.6279 321.809 93.0626 321.889 93.4986C321.955 93.8613 321.713 94.208 321.352 94.2733L321.232 94.2839" fill="#AED2F0"/>
<path d="M359.253 28.42L359.212 28.4187C358.316 28.3627 357.429 28.3347 356.556 28.3347C356.188 28.3347 355.889 28.036 355.889 27.668C355.889 27.3 356.188 27.0014 356.556 27.0014C357.459 27.0014 358.371 27.0307 359.296 27.088C359.663 27.112 359.943 27.428 359.919 27.796C359.897 28.1494 359.604 28.42 359.253 28.42V28.42ZM349.841 28.908C349.525 28.908 349.244 28.6813 349.187 28.3573C349.123 27.9947 349.363 27.6493 349.727 27.5853C350.617 27.428 351.532 27.3 352.447 27.208C352.805 27.172 353.14 27.436 353.177 27.804C353.215 28.1694 352.948 28.4974 352.583 28.5347C351.7 28.624 350.817 28.7467 349.959 28.8974L349.841 28.908ZM365.94 29.3267L365.805 29.312C364.921 29.132 364.047 28.976 363.181 28.8467C362.816 28.7907 362.567 28.452 362.621 28.088C362.675 27.7213 363.017 27.4787 363.379 27.5267C364.268 27.6613 365.167 27.8214 366.073 28.0067C366.433 28.08 366.665 28.432 366.592 28.7933C366.528 29.1093 366.251 29.3267 365.94 29.3267ZM343.359 30.7213C343.092 30.7213 342.841 30.5614 342.737 30.2987C342.603 29.956 342.772 29.5694 343.115 29.4347C343.957 29.104 344.831 28.8014 345.715 28.536C346.064 28.4334 346.44 28.6307 346.544 28.9827C346.651 29.336 346.451 29.7067 346.097 29.8134C345.251 30.068 344.411 30.3587 343.601 30.676L343.359 30.7213ZM372.452 31.0734L372.244 31.04C371.385 30.7574 370.533 30.4973 369.689 30.26C369.335 30.16 369.129 29.792 369.228 29.4374C369.328 29.0827 369.692 28.8747 370.051 28.976C370.915 29.2187 371.784 29.4854 372.66 29.7734C373.011 29.888 373.2 30.2654 373.084 30.616C372.992 30.896 372.732 31.0734 372.452 31.0734ZM378.747 33.5054L378.476 33.448C377.649 33.0827 376.828 32.7374 376.011 32.412C375.669 32.276 375.503 31.888 375.639 31.5454C375.775 31.2027 376.159 31.0347 376.505 31.1734C377.336 31.5054 378.173 31.856 379.016 32.228C379.353 32.3773 379.505 32.772 379.356 33.108C379.247 33.3574 379.001 33.5054 378.747 33.5054V33.5054ZM337.384 33.8253C337.168 33.8253 336.957 33.72 336.828 33.5267C336.625 33.2187 336.709 32.8054 337.016 32.6027C337.78 32.096 338.573 31.6187 339.373 31.1814C339.692 31.004 340.1 31.124 340.277 31.4467C340.455 31.7694 340.336 32.1747 340.012 32.352C339.245 32.7707 338.484 33.228 337.752 33.7147C337.639 33.7894 337.512 33.8253 337.384 33.8253ZM384.796 36.4933L384.476 36.412C383.683 35.9787 382.892 35.564 382.104 35.1667C381.776 35 381.644 34.6 381.809 34.2707C381.975 33.9427 382.376 33.808 382.705 33.976C383.504 34.38 384.307 34.8027 385.115 35.2414C385.437 35.4174 385.557 35.8227 385.381 36.1454C385.26 36.368 385.031 36.4933 384.796 36.4933ZM332.188 38.1067C332.019 38.1067 331.849 38.0427 331.719 37.9147C331.457 37.656 331.455 37.2334 331.713 36.972C332.359 36.3214 333.033 35.6893 333.723 35.0947C333.999 34.8573 334.42 34.8867 334.663 35.164C334.903 35.444 334.871 35.864 334.592 36.1054C333.931 36.676 333.281 37.2827 332.661 37.9094C332.531 38.0414 332.36 38.1067 332.188 38.1067ZM390.599 39.94C390.475 39.94 390.351 39.9067 390.239 39.8347C389.483 39.3494 388.724 38.876 387.963 38.4147C387.647 38.2254 387.547 37.8147 387.737 37.5C387.928 37.184 388.34 37.0867 388.652 37.2747C389.424 37.7414 390.195 38.2214 390.96 38.712C391.269 38.912 391.36 39.324 391.16 39.6334C391.032 39.832 390.817 39.94 390.599 39.94V39.94ZM327.933 43.328C327.805 43.328 327.676 43.292 327.561 43.2147C327.256 43.0094 327.175 42.5947 327.38 42.2893C327.896 41.524 328.439 40.776 328.995 40.0667C329.221 39.7774 329.639 39.7267 329.931 39.9533C330.22 40.1813 330.271 40.6 330.044 40.8907C329.508 41.5733 328.984 42.2947 328.487 43.0334C328.359 43.2254 328.147 43.328 327.933 43.328V43.328ZM396.151 43.7747C396.013 43.7747 395.873 43.732 395.755 43.644C395.032 43.112 394.307 42.588 393.577 42.0774C393.276 41.8654 393.201 41.4507 393.415 41.1494C393.624 40.8454 394.039 40.776 394.343 40.9853C395.081 41.5027 395.816 42.032 396.547 42.572C396.844 42.7907 396.907 43.208 396.688 43.504C396.556 43.6814 396.356 43.7747 396.151 43.7747ZM401.457 47.948C401.305 47.948 401.155 47.8973 401.029 47.7933C400.341 47.2187 399.647 46.652 398.949 46.0974C398.661 45.868 398.613 45.448 398.843 45.16C399.073 44.872 399.495 44.8267 399.78 45.0547C400.485 45.616 401.188 46.188 401.884 46.7707C402.167 47.0067 402.204 47.4267 401.969 47.7094C401.837 47.8667 401.647 47.948 401.457 47.948V47.948ZM324.649 49.212L324.372 49.152C324.036 48.9973 323.891 48.6027 324.044 48.268C324.429 47.4254 324.836 46.608 325.263 45.8134C325.436 45.488 325.843 45.3694 326.165 45.5414C326.489 45.716 326.612 46.12 326.437 46.4454C326.024 47.2147 325.631 48.008 325.255 48.824C325.143 49.068 324.903 49.212 324.649 49.212V49.212ZM406.52 52.4147C406.357 52.4147 406.195 52.3547 406.065 52.2347C405.409 51.6227 404.747 51.02 404.081 50.4253C403.805 50.1813 403.783 49.7587 404.028 49.484C404.271 49.2107 404.693 49.1854 404.969 49.4307C405.641 50.0307 406.309 50.6413 406.973 51.26C407.244 51.5107 407.257 51.932 407.008 52.2014C406.876 52.3427 406.697 52.4147 406.52 52.4147V52.4147ZM322.271 55.52L322.077 55.492C321.724 55.384 321.527 55.012 321.633 54.66C321.903 53.776 322.189 52.9107 322.495 52.0654C322.62 51.7187 323.008 51.54 323.348 51.6654C323.695 51.7907 323.873 52.172 323.748 52.5187C323.449 53.3427 323.171 54.1854 322.909 55.048C322.821 55.3347 322.557 55.52 322.271 55.52ZM411.341 57.1387C411.168 57.1387 410.993 57.0707 410.863 56.9374C410.236 56.292 409.607 55.6547 408.972 55.0267C408.709 54.768 408.707 54.3453 408.967 54.084C409.224 53.8213 409.645 53.82 409.909 54.0787C410.549 54.7134 411.187 55.356 411.819 56.0067C412.076 56.2707 412.071 56.6934 411.805 56.9494C411.677 57.076 411.509 57.1387 411.341 57.1387V57.1387ZM320.695 62.0774L320.573 62.0654C320.211 62 319.972 61.652 320.036 61.2907C320.203 60.3827 320.385 59.492 320.585 58.6173C320.667 58.26 321.021 58.0307 321.384 58.116C321.744 58.1987 321.968 58.556 321.885 58.916C321.691 59.7707 321.511 60.6413 321.349 61.5293C321.291 61.852 321.009 62.0774 320.695 62.0774V62.0774ZM415.92 62.0867C415.736 62.0867 415.552 62.0107 415.42 61.8613C414.828 61.1893 414.231 60.5254 413.629 59.868C413.38 59.5974 413.399 59.176 413.669 58.9267C413.94 58.6787 414.361 58.696 414.611 58.968C415.22 59.6307 415.823 60.3014 416.42 60.98C416.664 61.256 416.639 61.6773 416.361 61.92C416.235 62.032 416.077 62.0867 415.92 62.0867V62.0867ZM420.265 67.2387C420.072 67.2387 419.877 67.1533 419.747 66.9907C419.185 66.2933 418.617 65.6013 418.044 64.9173C417.808 64.6347 417.847 64.2134 418.129 63.9774C418.408 63.7414 418.828 63.7787 419.068 64.0613C419.645 64.752 420.219 65.4507 420.785 66.1547C421.016 66.4413 420.971 66.8613 420.684 67.092C420.56 67.1907 420.413 67.2387 420.265 67.2387V67.2387ZM319.807 68.764L319.749 68.7613C319.381 68.7293 319.111 68.4067 319.141 68.04C319.22 67.1227 319.313 66.22 319.423 65.332C319.469 64.9667 319.809 64.708 320.165 64.7507C320.531 64.796 320.792 65.128 320.747 65.4947C320.639 66.3667 320.548 67.2533 320.471 68.1547C320.44 68.5013 320.148 68.764 319.807 68.764V68.764ZM424.385 72.5774C424.181 72.5774 423.98 72.484 423.849 72.3067C423.316 71.5854 422.78 70.8693 422.236 70.1587C422.013 69.8667 422.068 69.448 422.361 69.224C422.652 69.0013 423.071 69.056 423.296 69.3494C423.843 70.0654 424.384 70.7867 424.921 71.5147C425.14 71.8107 425.079 72.228 424.781 72.4467C424.663 72.5347 424.524 72.5774 424.385 72.5774V72.5774ZM319.512 75.504H319.509C319.14 75.5027 318.844 75.2027 318.845 74.8347C318.849 73.916 318.865 73.008 318.899 72.1134C318.912 71.7534 319.208 71.472 319.565 71.472H319.589C319.957 71.4854 320.245 71.7947 320.232 72.1627C320.199 73.044 320.183 73.936 320.179 74.84C320.177 75.2067 319.879 75.504 319.512 75.504ZM428.272 78.0893C428.059 78.0893 427.849 77.9867 427.72 77.796C427.217 77.0533 426.711 76.3134 426.197 75.58C425.987 75.2787 426.061 74.8627 426.363 74.652C426.663 74.444 427.08 74.5133 427.292 74.8173C427.807 75.556 428.319 76.3 428.824 77.0494C429.031 77.3547 428.951 77.7694 428.645 77.9747C428.531 78.052 428.401 78.0893 428.272 78.0893V78.0893ZM319.727 82.2494C319.379 82.2494 319.087 81.9787 319.063 81.6267C319.001 80.7187 318.953 79.8134 318.917 78.912C318.903 78.544 319.189 78.2347 319.557 78.22H319.584C319.94 78.22 320.236 78.5 320.251 78.86C320.284 79.748 320.332 80.64 320.393 81.5374C320.417 81.904 320.14 82.2227 319.773 82.248L319.727 82.2494ZM431.931 83.76C431.708 83.76 431.489 83.648 431.363 83.444C430.893 82.68 430.417 81.92 429.935 81.1653C429.736 80.856 429.827 80.444 430.137 80.2454C430.445 80.048 430.859 80.136 431.057 80.448C431.544 81.208 432.024 81.9734 432.499 82.744C432.692 83.0574 432.593 83.468 432.281 83.6613L431.931 83.76ZM320.4 88.9653C320.071 88.9653 319.784 88.7213 319.74 88.3853C319.621 87.484 319.513 86.5853 319.417 85.6893C319.377 85.3227 319.641 84.9947 320.008 84.9547C320.367 84.9147 320.703 85.1787 320.743 85.5454C320.839 86.432 320.944 87.32 321.063 88.2107C321.111 88.576 320.853 88.9107 320.488 88.9587L320.4 88.9653ZM435.355 89.58C435.121 89.58 434.896 89.4574 434.773 89.24C434.333 88.4574 433.888 87.6787 433.437 86.9027C433.251 86.5854 433.36 86.1773 433.677 85.992C433.992 85.808 434.403 85.9133 434.588 86.232C435.044 87.0133 435.492 87.7987 435.935 88.5853C436.116 88.9067 436.001 89.3133 435.681 89.4947L435.355 89.58ZM438.537 95.5374C438.296 95.5374 438.061 95.404 437.943 95.172C437.537 94.3734 437.124 93.576 436.704 92.7827C436.531 92.4574 436.656 92.0547 436.98 91.8814C437.307 91.7107 437.709 91.8333 437.881 92.1587C438.305 92.9587 438.723 93.7627 439.133 94.568C439.3 94.8974 439.168 95.2987 438.84 95.4653L438.537 95.5374ZM441.475 101.623C441.223 101.623 440.98 101.477 440.868 101.232C440.496 100.417 440.117 99.604 439.729 98.7933C439.571 98.46 439.711 98.0627 440.043 97.904C440.373 97.7454 440.772 97.8867 440.932 98.2173C441.323 99.036 441.707 99.856 442.083 100.679C442.235 101.013 442.087 101.409 441.752 101.563L441.475 101.623ZM444.149 107.829C443.887 107.829 443.637 107.671 443.531 107.412C443.196 106.583 442.852 105.753 442.499 104.927C442.355 104.588 442.512 104.196 442.851 104.052C443.193 103.907 443.581 104.064 443.725 104.404C444.081 105.239 444.428 106.075 444.768 106.912C444.907 107.253 444.741 107.641 444.4 107.78L444.149 107.829Z" fill="#AED2F0"/>
<path d="M446.117 112.935C445.845 112.935 445.589 112.768 445.491 112.497L445.029 111.251C444.903 110.905 445.079 110.521 445.423 110.392C445.763 110.263 446.151 110.441 446.28 110.785L446.744 112.04C446.869 112.385 446.692 112.768 446.347 112.895L446.117 112.935" fill="#AED2F0"/>
<path d="M421.935 212.399C421.672 212.399 421.421 212.241 421.316 211.981C421.151 211.573 420.983 211.164 420.812 210.756C420.671 210.417 420.829 210.027 421.169 209.884C421.511 209.744 421.9 209.903 422.041 210.241C422.215 210.653 422.385 211.068 422.553 211.481C422.692 211.823 422.527 212.211 422.185 212.351L421.935 212.399" fill="#EC2680"/>
<path d="M424.205 218.6C423.925 218.6 423.665 218.423 423.573 218.141C423.3 217.313 423.016 216.487 422.719 215.66C422.595 215.313 422.775 214.931 423.121 214.807C423.469 214.687 423.851 214.863 423.973 215.209C424.273 216.047 424.563 216.887 424.839 217.725C424.955 218.075 424.764 218.452 424.415 218.567L424.205 218.6ZM426.045 224.944C425.747 224.944 425.475 224.743 425.399 224.44C425.188 223.593 424.963 222.749 424.723 221.904C424.623 221.549 424.829 221.181 425.184 221.081C425.535 220.983 425.907 221.188 426.007 221.541C426.249 222.4 426.476 223.257 426.693 224.115C426.781 224.472 426.565 224.835 426.208 224.924L426.045 224.944ZM427.399 231.407C427.08 231.407 426.797 231.176 426.743 230.851C426.599 229.993 426.44 229.135 426.267 228.273C426.195 227.913 426.428 227.561 426.789 227.488C427.145 227.417 427.501 227.648 427.575 228.011C427.751 228.887 427.912 229.759 428.057 230.629C428.119 230.992 427.872 231.336 427.511 231.397L427.399 231.407ZM428.196 237.963C427.852 237.963 427.56 237.696 427.532 237.347C427.468 236.481 427.387 235.612 427.288 234.74C427.248 234.373 427.511 234.044 427.876 234.003C428.236 233.959 428.572 234.224 428.613 234.591C428.712 235.479 428.796 236.364 428.863 237.245C428.891 237.612 428.616 237.932 428.249 237.961L428.196 237.963ZM428.351 244.563H428.328C427.961 244.551 427.672 244.243 427.684 243.873C427.703 243.276 427.712 242.668 427.712 242.053L427.707 241.263C427.701 240.896 427.996 240.592 428.364 240.587C428.735 240.635 429.035 240.876 429.04 241.245L429.045 242.053C429.045 242.684 429.036 243.305 429.017 243.917C429.005 244.277 428.708 244.563 428.351 244.563V244.563ZM427.728 251.131L427.617 251.121C427.253 251.061 427.008 250.717 427.069 250.355C427.208 249.516 427.324 248.656 427.417 247.776C427.457 247.409 427.788 247.139 428.151 247.184C428.517 247.223 428.783 247.551 428.744 247.917C428.647 248.823 428.528 249.708 428.384 250.573C428.329 250.9 428.047 251.131 427.728 251.131V251.131ZM426.141 257.528L425.925 257.492C425.577 257.372 425.392 256.993 425.512 256.645C425.787 255.845 426.039 255.012 426.261 254.165C426.357 253.811 426.715 253.591 427.077 253.692C427.432 253.785 427.644 254.149 427.551 254.507C427.319 255.383 427.057 256.248 426.772 257.079C426.677 257.356 426.419 257.528 426.141 257.528ZM423.365 263.501L423.019 263.404C422.704 263.212 422.605 262.803 422.797 262.487C423.236 261.769 423.652 261.009 424.033 260.228C424.196 259.896 424.601 259.764 424.925 259.921C425.256 260.084 425.393 260.483 425.232 260.813C424.831 261.632 424.395 262.428 423.935 263.183C423.808 263.388 423.589 263.501 423.365 263.501ZM419.22 268.612C419.041 268.612 418.863 268.54 418.732 268.399C418.48 268.129 418.496 267.707 418.767 267.457C419.385 266.883 419.981 266.26 420.539 265.608C420.779 265.327 421.201 265.295 421.477 265.533C421.759 265.772 421.792 266.193 421.552 266.472C420.963 267.165 420.329 267.824 419.673 268.433C419.545 268.553 419.383 268.612 419.22 268.612V268.612ZM390.681 271.793L390.437 271.748C389.624 271.427 388.803 271.08 387.972 270.7C387.639 270.547 387.491 270.151 387.643 269.816C387.797 269.48 388.195 269.337 388.528 269.487C389.333 269.856 390.132 270.195 390.924 270.505C391.267 270.64 391.436 271.028 391.303 271.369C391.197 271.633 390.947 271.793 390.681 271.793V271.793ZM413.781 272.299C413.531 272.299 413.292 272.156 413.179 271.916C413.021 271.583 413.164 271.185 413.497 271.028C414.263 270.668 415.016 270.255 415.736 269.799C416.045 269.6 416.457 269.692 416.655 270.004C416.853 270.313 416.76 270.727 416.449 270.923C415.684 271.411 414.881 271.852 414.065 272.235L413.781 272.299ZM396.988 273.724L396.848 273.708C395.996 273.525 395.12 273.303 394.244 273.049C393.889 272.947 393.687 272.577 393.788 272.224C393.891 271.869 394.26 271.663 394.613 271.768C395.461 272.013 396.307 272.228 397.129 272.407C397.489 272.483 397.717 272.839 397.639 273.197C397.573 273.511 397.296 273.724 396.988 273.724V273.724ZM407.481 274.189C407.157 274.189 406.873 273.952 406.824 273.621C406.769 273.256 407.021 272.917 407.384 272.863C408.236 272.736 409.081 272.561 409.895 272.344C410.252 272.252 410.616 272.463 410.711 272.816C410.805 273.172 410.593 273.537 410.239 273.633C409.375 273.861 408.481 274.047 407.583 274.181L407.481 274.189ZM403.536 274.468H403.533C402.644 274.464 401.737 274.417 400.837 274.333C400.471 274.299 400.201 273.972 400.236 273.607C400.271 273.24 400.621 272.984 400.963 273.005C401.823 273.087 402.691 273.131 403.539 273.135C403.908 273.136 404.204 273.436 404.203 273.804C404.201 274.171 403.904 274.468 403.536 274.468" fill="#EC2680"/>
<path d="M384.67 268.96L384.35 268.877C383.959 268.663 383.567 268.443 383.174 268.216C382.855 268.032 382.744 267.625 382.927 267.305C383.111 266.984 383.52 266.876 383.838 267.06C384.223 267.281 384.607 267.499 384.99 267.708C385.312 267.885 385.431 268.291 385.254 268.613C385.134 268.835 384.904 268.96 384.67 268.96Z" fill="#EC2680"/>
<path d="M420.357 213.053L420.315 213.052C419.948 213.028 419.668 212.712 419.692 212.345L419.913 208.789C419.928 208.545 420.076 208.329 420.297 208.227C420.521 208.125 420.78 208.149 420.975 208.296L423.975 210.519C424.271 210.737 424.333 211.155 424.113 211.451C423.895 211.747 423.479 211.808 423.181 211.588L421.167 210.096L421.023 212.428C421 212.781 420.707 213.053 420.357 213.053" fill="#EC2680"/>
<path d="M178.395 94.9C178.371 90.5227 172.205 86.9627 164.624 86.9493C157.043 86.936 150.916 90.4733 150.94 94.8493C150.961 98.856 156.132 102.168 162.819 102.713L162.831 104.932C161.564 105.125 160.628 105.785 160.632 106.58L160.673 114.153C160.679 115.101 162.013 115.872 163.656 115.876L165.907 115.88C167.548 115.883 168.876 115.116 168.871 114.168L168.829 106.595C168.825 105.8 167.883 105.137 166.612 104.939L166.601 102.72C173.283 102.199 178.416 98.9053 178.395 94.9Z" fill="white"/>
<path d="M344.572 404.771L106.216 267.076C96.9878 261.748 89.5078 247.455 89.5078 235.151V18.32C89.5078 6.01601 96.9878 0.361346 106.216 5.68801L344.572 143.384C353.8 148.712 361.28 163.005 361.28 175.309V392.139C361.28 404.444 353.8 410.098 344.572 404.771Z" fill="#D6EEFB"/>
<path d="M351.179 139.971L112.823 2.27598C109.172 0.166643 105.795 -0.22136 103.045 0.839974C102.696 0.975974 96.1668 4.34796 95.8374 4.53063L95.8228 4.53997C98.6694 3.15731 102.28 3.41596 106.216 5.68796L344.572 143.384C353.8 148.712 361.28 163.005 361.28 175.309V392.14C361.28 399.819 358.367 404.905 353.932 406.352C354.293 406.372 354.744 406.231 355.396 405.853C355.608 405.732 362.535 401.981 362.736 401.84C365.911 399.617 367.887 395.049 367.887 388.725V171.896C367.887 159.592 360.405 145.299 351.179 139.971" fill="#5191D4"/>
<path d="M349.307 140.868L110.952 3.17327C107.301 1.06528 103.924 0.675941 101.175 1.73861C100.825 1.87327 96.1668 4.34793 95.8374 4.5306L95.8228 4.53994C98.6694 3.15727 102.28 3.41592 106.216 5.68792L344.572 143.384L349.307 140.868" fill="#5F9FDB"/>
<path d="M360.449 398.617C360.449 398.616 360.449 398.616 360.449 398.616C360.449 398.616 360.449 398.616 360.449 398.617ZM360.461 398.576C360.464 398.565 360.467 398.555 360.469 398.545C360.467 398.555 360.464 398.565 360.461 398.576ZM360.473 398.535C360.476 398.524 360.479 398.515 360.481 398.505C360.479 398.515 360.476 398.524 360.473 398.535ZM360.484 398.495C360.487 398.485 360.489 398.473 360.493 398.463C360.489 398.473 360.487 398.484 360.484 398.495ZM360.495 398.457C361.005 396.616 361.28 394.5 361.28 392.139V368.765V392.14C361.28 394.5 361.005 396.616 360.495 398.457V398.457ZM361.28 268.217V227.875V268.217ZM361.28 187.973V187.972V187.973ZM361.28 181.781V175.309C361.28 172.945 361.004 170.505 360.492 168.072C361.004 170.505 361.28 172.945 361.28 175.309V181.781Z" fill="white"/>
<path d="M360.247 166.981C358.512 159.729 354.735 152.619 349.995 147.716C354.735 152.619 358.512 159.729 360.247 166.981" fill="white"/>
<path d="M360.492 168.072C360.484 168.033 360.476 167.996 360.468 167.959C360.476 167.996 360.484 168.033 360.492 168.072Z" fill="white"/>
<path d="M360.415 167.716C360.361 167.471 360.305 167.227 360.247 166.981C360.305 167.225 360.361 167.471 360.416 167.716H360.415Z" fill="white"/>
<path d="M360.468 167.959C360.451 167.877 360.433 167.797 360.415 167.716H360.416C360.433 167.797 360.451 167.877 360.468 167.959" fill="white"/>
<path d="M106.216 5.68799C106.156 5.65332 106.095 5.61865 106.035 5.58532C106.095 5.61865 106.156 5.65332 106.216 5.68799Z" fill="white"/>
<path d="M353.433 406.257C357.463 404.516 360.077 399.598 360.077 392.34V368.076L361.28 368.765V392.139C361.28 394.5 361.005 396.616 360.495 398.457C360.493 398.459 360.493 398.46 360.493 398.463C360.489 398.473 360.487 398.485 360.484 398.495C360.483 398.498 360.481 398.502 360.481 398.505C360.479 398.515 360.476 398.524 360.473 398.535C360.472 398.537 360.471 398.541 360.469 398.545C360.467 398.555 360.464 398.565 360.461 398.576C360.457 398.589 360.453 398.601 360.449 398.616C360.449 398.616 360.449 398.616 360.449 398.617C359.495 401.94 357.764 404.345 355.504 405.651C354.849 405.939 354.157 406.143 353.433 406.257V406.257ZM361.28 277.836L360.077 277.145L361.28 277.836ZM361.28 268.217L360.077 267.527V175.511C360.077 163.205 352.596 148.913 343.369 143.585L105.013 5.88935C102.66 4.53068 100.421 3.89068 98.392 3.89068C98.1027 3.89068 97.8187 3.90402 97.54 3.92935C98.1987 3.77335 98.8894 3.69335 99.6054 3.69335C101.579 3.69335 103.751 4.29868 106.035 5.58534C106.095 5.61868 106.156 5.65335 106.216 5.68801L344.572 143.384C346.471 144.48 348.295 145.956 349.995 147.716C354.735 152.619 358.512 159.729 360.247 166.981C360.305 167.227 360.361 167.471 360.415 167.716C360.433 167.797 360.451 167.877 360.468 167.959C360.476 167.996 360.484 168.033 360.492 168.072C361.004 170.505 361.28 172.945 361.28 175.309V181.781V187.973V199.608V200.689V200.703V200.741V214.233V214.621V217.188V227.875V268.217" fill="white"/>
<path d="M355.504 405.65C357.764 404.345 359.495 401.94 360.45 398.617C360.45 398.616 360.45 398.616 360.45 398.616C360.454 398.601 360.458 398.589 360.462 398.576C360.464 398.565 360.467 398.555 360.47 398.545C360.471 398.541 360.472 398.537 360.474 398.535C360.476 398.524 360.479 398.514 360.482 398.505C360.482 398.501 360.483 398.498 360.484 398.495C360.487 398.484 360.49 398.473 360.494 398.462C360.494 398.46 360.494 398.459 360.495 398.457C361.006 396.616 361.28 394.5 361.28 392.14V368.765L362.083 369.225V391.738C362.083 398.962 359.502 403.889 355.504 405.65V405.65ZM362.083 278.297L361.28 277.836L362.083 278.296V278.297ZM362.083 268.677L361.28 268.217V227.875V217.188V214.623V214.233V200.741V200.703V200.689V199.608V187.973V187.972V181.781V175.309C361.28 172.945 361.004 170.505 360.492 168.072C360.484 168.033 360.476 167.996 360.468 167.958C360.451 167.877 360.434 167.797 360.416 167.716C360.362 167.471 360.306 167.225 360.247 166.981C358.512 159.729 354.735 152.619 349.995 147.716C348.295 145.956 346.471 144.48 344.572 143.384L345.351 142.971L345.374 142.984C354.602 148.31 362.083 162.604 362.083 174.908V268.677" fill="white"/>
<path d="M344.572 143.384L106.216 5.68791C106.156 5.65324 106.095 5.61857 106.035 5.58524C103.751 4.29857 101.579 3.69325 99.6053 3.69325C98.8893 3.69325 98.1986 3.77325 97.5399 3.92925C97.3426 3.94658 97.1466 3.97192 96.9546 4.00259C98.0213 3.54126 99.1866 3.29992 100.429 3.29992C102.449 3.29992 104.676 3.93591 107.019 5.28791L345.351 142.971L344.572 143.384" fill="white"/>
<path d="M98.8921 37.5986V235.151C98.8921 244.8 103.485 254.231 110.912 258.951L346.723 395.16C346.812 395.21 346.945 395.288 347.115 395.384C349.244 396.598 351.896 395.061 351.896 392.609V183.756L98.8921 37.5986Z" fill="#23366A"/>
<path d="M351.559 393.607C351.389 393.51 351.256 393.433 351.168 393.383L115.356 257.172C107.929 252.453 103.336 243.023 103.336 233.372V40.1666L98.8921 37.5986V235.151C98.8921 244.8 103.485 254.231 110.912 258.951L346.723 395.16C346.812 395.21 346.945 395.288 347.115 395.384C348.916 396.41 351.071 395.46 351.7 393.664L351.559 393.607" fill="#17203E"/>
<path d="M338.623 160.035C338.623 162.949 340.681 166.5 343.221 167.967C345.76 169.433 347.82 168.259 347.82 165.345C347.82 162.431 345.76 158.88 343.221 157.413C340.681 155.947 338.623 157.121 338.623 160.035Z" fill="#FBC907"/>
<path d="M326.761 153.145C326.761 156.06 328.821 159.611 331.36 161.077C333.9 162.543 335.959 161.369 335.959 158.455C335.959 155.541 333.9 151.989 331.36 150.524C328.821 149.057 326.761 150.231 326.761 153.145" fill="#EC2680"/>
<path d="M314.901 146.256C314.901 149.169 316.96 152.721 319.5 154.187C322.039 155.653 324.099 154.48 324.099 151.565C324.099 148.651 322.039 145.1 319.5 143.633C316.96 142.168 314.901 143.341 314.901 146.256" fill="#45C0B5"/>
<path d="M339.84 188.988L322.544 179.003C320.797 177.993 319.38 178.801 319.38 180.807C319.38 182.812 320.797 185.255 322.544 186.264L339.84 196.249C341.586 197.257 343.003 196.451 343.003 194.445C343.003 192.44 341.586 189.997 339.84 188.988ZM311.365 172.549L294.07 162.563C292.322 161.555 290.906 162.363 290.906 164.367C290.906 166.372 292.322 168.815 294.07 169.824L311.365 179.809C313.113 180.819 314.529 180.011 314.529 178.005C314.529 176.001 313.113 173.557 311.365 172.549ZM282.892 156.109L265.596 146.124C263.849 145.115 262.432 145.923 262.432 147.928C262.432 149.933 263.849 152.376 265.596 153.384L282.892 163.371C284.638 164.379 286.056 163.572 286.056 161.567C286.056 159.561 284.638 157.119 282.892 156.109V156.109ZM254.417 139.669L237.122 129.684C235.374 128.676 233.958 129.484 233.958 131.488C233.958 133.493 235.374 135.936 237.122 136.945L254.417 146.931C256.165 147.94 257.581 147.132 257.581 145.127C257.581 143.123 256.165 140.679 254.417 139.669Z" fill="#7FB7E7"/>
<path d="M185.792 153.943V228.375L193.933 223.609V148.965L185.792 153.943Z" fill="#386FB2"/>
<path d="M185.822 153.943V228.375L23.4277 135.247V60.6026L185.822 153.943" fill="#5191D4"/>
<path d="M23.4277 60.6026L185.822 153.943L193.933 148.965L31.4864 55.6999L23.4277 60.6026Z" fill="#7FB7E7"/>
<path d="M185.822 153.943L23.4277 60.6026L185.801 152.809L193.933 148.965L185.822 153.943" fill="#D8EDFA"/>
<path d="M162.039 201.379V198.217L110.787 169.081V172.241L162.039 201.379" fill="white"/>
<path d="M88.5908 110.299V113.459L174.743 162.744V159.584L88.5908 110.299Z" fill="white"/>
<path d="M118.925 154.08L88.5908 136.567V139.727L118.925 157.24V154.08" fill="white"/>
<path d="M139.453 179.065V182.225L151.984 189.005V185.845L139.453 179.065Z" fill="white"/>
<path d="M137.508 151.676L88.5908 123.432V126.593L137.508 154.836V151.676" fill="white"/>
<path d="M106.508 140.344L88.5908 130V133.16L106.508 143.504V140.344Z" fill="white"/>
<path d="M101.953 160.575L136.341 180.429V177.269L101.953 157.415V160.575Z" fill="white"/>
<path d="M109.62 142.14V145.301L157.9 172.721V169.561L109.62 142.14" fill="white"/>
<path d="M122.036 155.876V159.036L146.175 172.973V169.813L122.036 155.876" fill="white"/>
<path d="M98.8415 155.619L88.5908 149.7V152.86L98.8415 158.779V155.619Z" fill="white"/>
<path d="M140.62 156.632L174.743 175.877V172.717L140.62 153.472V156.632" fill="white"/>
<path d="M161.012 174.517L174.742 182.444V179.284L161.012 171.357V174.517Z" fill="white"/>
<path d="M88.5908 120.027L174.743 169.311V166.151L88.5908 116.865V120.027" fill="white"/>
<path d="M149.287 174.769L174.743 189.012V185.851L149.287 171.609V174.769" fill="white"/>
<path d="M107.675 167.285L88.5908 156.267V159.428L107.675 170.445V167.285" fill="white"/>
<path d="M165.15 203.175L174.742 208.712V205.552L165.15 200.013V203.175Z" fill="white"/>
<path d="M155.095 190.801L174.743 202.145V198.985L155.095 187.641V190.801Z" fill="white"/>
<path d="M88.5908 146.293L174.743 195.579V192.417L88.5908 143.133V146.293Z" fill="white"/>
<path d="M70.5906 97.7999L42.2666 81.4159C37.3159 78.5572 33.3013 81.5919 33.3013 88.1946V120.977C33.3013 127.58 37.3159 135.251 42.2666 138.108L70.5906 154.492C75.5413 157.352 79.5559 154.317 79.5559 147.715V114.931C79.5559 108.328 75.5413 100.659 70.5906 97.7999Z" fill="#386FB2"/>
<path d="M74.0906 151.825L45.7666 135.443C40.8159 132.583 36.8013 124.913 36.8013 118.311V85.528C36.8013 83.44 37.2053 81.712 37.9106 80.4107C35.1626 80.8667 33.3013 83.7013 33.3013 88.1947V120.977C33.3013 127.58 37.3159 135.251 42.2666 138.108L70.5906 154.492C73.9759 156.447 76.9213 155.644 78.4466 152.831C77.1573 153.045 75.6719 152.739 74.0906 151.825Z" fill="#254A98"/>
<path d="M48.5906 106.967L20.2666 90.5827C15.3159 87.724 11.3013 90.7586 11.3013 97.3613V130.144C11.3013 136.747 15.3159 144.416 20.2666 147.276L48.5906 163.659C53.5413 166.519 57.5559 163.484 57.5559 156.881V124.097C57.5559 117.495 53.5413 109.825 48.5906 106.967" fill="#45C0B5"/>
<path d="M53.2107 104.257L24.8881 87.8746C22.7667 86.6493 20.8214 86.5133 19.2867 87.268L19.2387 87.2146L14.3374 90.092L14.3561 90.1519C15.9347 89.2119 18.0001 89.2733 20.2681 90.5826L48.5907 106.967C53.5414 109.825 57.5561 117.495 57.5561 124.097V156.881C57.5561 160.091 56.6027 162.447 55.0587 163.703L57.7921 161.903C60.0881 160.587 62.1761 158.54 62.1761 154.172V121.388C62.1761 114.787 58.1627 107.116 53.2107 104.257" fill="#3AA59F"/>
<path d="M23.4281 92.4106L20.2668 90.5826C20.0215 90.4413 19.7775 90.3133 19.5361 90.2C19.7775 90.3133 20.0215 90.44 20.2681 90.5826L23.4281 92.4106" fill="white"/>
<path d="M33.3011 98.1226L23.4277 92.4106L33.3011 98.1226Z" fill="#CAE3F4"/>
<path d="M57.5559 124.097C57.5559 117.495 53.5413 109.825 48.5906 106.967L36.8013 100.147L48.5906 106.967C53.5413 109.825 57.5559 117.495 57.5559 124.097Z" fill="#C1D8EA"/>
<path d="M36.8013 100.147L33.3013 98.1226L36.8013 100.147Z" fill="#B7CAE2"/>
<path d="M14.4639 89.9827C14.7919 89.74 15.1452 89.544 15.5185 89.3986L14.6159 89.928C14.5652 89.9453 14.5145 89.964 14.4639 89.9827" fill="white"/>
<path d="M54.3095 164.007C55.9508 162.788 56.9695 160.372 56.9695 157.049V124.265C56.9695 117.663 52.9548 109.993 48.0028 107.135L19.6801 90.7506C18.4215 90.0239 17.2268 89.6826 16.1415 89.6826C15.7895 89.6826 15.4481 89.7186 15.1201 89.7892C15.6215 89.6079 16.1601 89.5133 16.7281 89.5133C17.6001 89.5133 18.5455 89.7346 19.5361 90.1999C19.7775 90.3133 20.0215 90.4413 20.2668 90.5826L23.4281 92.4106L33.3015 98.1226L36.8015 100.147L48.5908 106.967C53.5415 109.825 57.5561 117.495 57.5561 124.097V156.881C57.5561 156.893 57.5561 156.904 57.5561 156.916C57.5561 156.919 57.5561 156.921 57.5561 156.924C57.5561 156.933 57.5561 156.943 57.5561 156.952C57.5561 156.955 57.5561 156.957 57.5561 156.959C57.5415 159.92 56.7108 162.147 55.3534 163.443C55.0281 163.677 54.6801 163.867 54.3095 164.007" fill="#BDE9E4"/>
<path d="M55.3535 163.443C56.7108 162.147 57.5415 159.92 57.5562 156.959C57.5562 156.956 57.5562 156.955 57.5562 156.952C57.5562 156.943 57.5562 156.933 57.5562 156.924C57.5562 156.921 57.5562 156.919 57.5562 156.916C57.5562 156.904 57.5562 156.893 57.5562 156.881V124.097C57.5562 117.495 53.5415 109.825 48.5909 106.967L36.8015 100.147L33.3015 98.1226L23.4282 92.4106L20.2682 90.5826C20.0215 90.44 19.7775 90.3133 19.5362 90.2C18.5455 89.7346 17.6002 89.5133 16.7282 89.5133C16.1602 89.5133 15.6215 89.6079 15.1202 89.7893C14.9495 89.8266 14.7802 89.8733 14.6162 89.928L15.5188 89.3986C16.0442 89.1946 16.6135 89.0893 17.2149 89.0893C18.3055 89.0893 19.5069 89.4333 20.7709 90.1626L49.0935 106.547C54.0455 109.407 58.0602 117.076 58.0602 123.679V156.461C58.0602 159.813 57.0215 162.237 55.3535 163.443" fill="#B9E7DF"/>
<path d="M47.5611 151.489L20.7838 136.021V103.04L47.5611 118.505V151.489ZM18.8145 99.6292V137.159L49.5291 154.899V117.371L18.8145 99.6292" fill="white"/>
<path d="M42.7825 124.043C42.7825 126.501 41.0451 127.491 38.9025 126.255C36.7598 125.017 35.0225 122.021 35.0225 119.563C35.0225 117.104 36.7598 116.113 38.9025 117.351C41.0451 118.587 42.7825 121.584 42.7825 124.043Z" fill="white"/>
<path d="M19.8438 127.187L27.8411 116.852L35.9611 137.399L41.8664 132.601L48.3877 150.317L48.2637 152.112L19.9664 136.979L19.8438 127.187" fill="white"/>
<path d="M394.579 128.599C394.579 133.699 392.819 137.311 389.957 139.059L384.983 142.139C382.005 143.804 383.909 140.027 379.389 137.417C370.291 132.164 362.916 119.443 362.916 109.003C362.916 103.84 358.143 103.799 361.067 102.075L366.605 98.9133C369.575 97.3053 373.632 97.6013 378.105 100.185C387.203 105.437 394.579 118.159 394.579 128.599" fill="#FBC907"/>
<path d="M373.505 103.001C369.144 100.484 365.182 100.144 362.234 101.619C364.982 100.849 368.39 101.424 372.082 103.555C381.181 108.808 388.556 121.529 388.556 131.969C388.556 137.404 386.554 141.145 383.353 142.745C387.374 141.62 389.978 137.619 389.978 131.416C389.978 120.976 382.604 108.255 373.505 103.001" fill="white"/>
<path d="M389.188 131.811C389.188 142.251 381.813 146.456 372.715 141.203C363.617 135.951 356.241 123.229 356.241 112.789C356.241 102.349 363.617 98.1439 372.715 103.397C381.813 108.649 389.188 121.371 389.188 131.811Z" fill="#FAD609"/>
<path d="M369.769 115.529C369.769 116.996 368.732 117.588 367.455 116.849C366.176 116.111 365.139 114.324 365.139 112.857C365.139 111.389 366.176 110.799 367.455 111.537C368.732 112.275 369.769 114.063 369.769 115.529Z" fill="#D49B16"/>
<path d="M379.13 120.935C379.13 122.401 378.094 122.993 376.816 122.255C375.537 121.516 374.501 119.729 374.501 118.261C374.501 116.795 375.537 116.204 376.816 116.943C378.094 117.68 379.13 119.468 379.13 120.935" fill="#D49B16"/>
<path d="M363.388 121.571L365.546 121.936C366.541 125.72 369.205 129.413 372.174 131.128C375.056 132.792 377.692 132.243 378.734 129.763L380.872 131.948C379.489 135.236 375.994 135.963 372.174 133.757C368.238 131.485 364.706 126.588 363.388 121.571Z" fill="#D49B16"/>
<path d="M368.131 116.376C366.852 115.637 365.816 113.851 365.816 112.384C365.816 111.905 365.935 111.532 366.127 111.256C365.531 111.392 365.139 111.957 365.139 112.857C365.139 114.324 366.176 116.111 367.455 116.849C368.316 117.347 369.059 117.229 369.457 116.657C369.081 116.744 368.625 116.661 368.131 116.376" fill="#A97D1D"/>
<path d="M377.492 121.781C376.213 121.043 375.177 119.256 375.177 117.788C375.177 117.311 375.296 116.937 375.489 116.661C374.893 116.797 374.501 117.363 374.501 118.261C374.501 119.729 375.537 121.516 376.816 122.255C377.677 122.752 378.421 122.635 378.82 122.063C378.444 122.149 377.986 122.067 377.492 121.781Z" fill="#A97D1D"/>
<path d="M379 130.035L378.735 129.763C378.489 130.347 378.149 130.813 377.747 131.179C378.237 130.917 378.663 130.536 379 130.035Z" fill="#A97D1D"/>
<path d="M372.85 133.284C369.076 131.105 365.68 126.512 364.244 121.716L363.388 121.571C364.706 126.588 368.238 131.485 372.174 133.757C375.05 135.419 377.741 135.415 379.485 133.909C377.76 134.912 375.378 134.744 372.85 133.284" fill="#A97D1D"/>
<path d="M386.484 292.336V383.236L394.625 378.471V287.359L386.484 292.336Z" fill="#386FB2"/>
<path d="M386.515 292.336V383.236L208.787 281.317V190.207L386.515 292.336" fill="#5191D4"/>
<path d="M208.787 190.207L386.515 292.336L394.625 287.359L216.844 185.304L208.787 190.207" fill="#7FB7E7"/>
<path d="M386.515 292.336L362.083 278.296L361.28 277.836L360.077 277.145L208.787 190.207L386.492 291.203L394.625 287.359L386.515 292.336" fill="#D8EDFA"/>
<path d="M375.724 332.14C375.724 349.814 363.237 356.933 347.834 348.04C332.43 339.148 319.944 317.61 319.944 299.936C319.944 282.261 332.43 275.141 347.834 284.035C363.237 292.928 375.724 314.465 375.724 332.14" fill="#386FB2"/>
<path d="M350.501 345.707C335.097 336.814 322.611 315.277 322.611 297.603C322.611 291.008 324.351 285.885 327.331 282.512C322.747 285.569 319.944 291.567 319.944 299.936C319.944 317.61 332.43 339.148 347.834 348.04C357.49 353.616 365.999 352.896 371.005 347.229C365.909 350.628 358.61 350.389 350.501 345.707" fill="#254A98"/>
<path d="M233.993 242.924L227.997 239.461V283.047L233.993 286.509V242.924ZM219.106 252.796V277.967L225.102 281.429V256.259L219.106 252.796ZM242.884 250.344L236.886 246.881V288.423L242.884 291.885V250.344ZM304.356 292.209L298.36 288.747V324.308L304.356 327.769V292.209ZM295.804 270.763L289.808 267.3V319.312L295.804 322.774V270.763ZM260.666 246.469L254.67 243.008V298.864L260.666 302.327V246.469ZM245.78 256.761V293.784L251.776 297.247V260.223L245.78 256.761ZM287.084 252.001L281.086 248.54V314.232L287.084 317.695V252.001ZM278.193 236.736L272.196 233.273V309.152L278.193 312.615V236.736ZM269.557 240.124L263.56 236.663V304.241L269.557 307.703V240.124Z" fill="#386FB2"/>
<path d="M304.356 297.484L298.36 294.023V324.308L304.356 327.769V297.484ZM295.804 280.443L289.808 276.981V319.312L295.804 322.774V280.443ZM233.993 270.692L227.997 267.229V283.047L233.993 286.509V270.692ZM219.106 270.677V277.967L225.102 281.429V274.139L219.106 270.677ZM242.884 253.743L236.886 250.28V288.423L242.884 291.885V253.743ZM260.666 264.657L254.67 261.195V298.864L260.666 302.327V264.657ZM245.78 265.756V293.784L251.776 297.247V269.219L245.78 265.756ZM287.084 263.997L281.086 260.535V314.232L287.084 317.695V263.997ZM278.193 247.987L272.196 244.524V309.152L278.193 312.615V247.987ZM269.557 266.651L263.56 263.189V304.241L269.557 307.703V266.651Z" fill="#AED2F0"/>
<path d="M287.084 264.747L281.087 261.284V260.535L287.084 263.997V264.747Z" fill="white"/>
<path d="M278.194 248.736L272.196 245.273V244.524L278.194 247.987V248.736Z" fill="white"/>
<path d="M304.356 298.233L298.36 294.772V294.023L304.356 297.484V298.233Z" fill="white"/>
<path d="M269.557 267.4L263.56 263.939V263.189L269.557 266.651V267.4Z" fill="white"/>
<path d="M295.804 281.192L289.808 277.731V276.981L295.804 280.443V281.192Z" fill="white"/>
<path d="M233.993 271.441L227.997 267.979V267.229L233.993 270.692V271.441Z" fill="white"/>
<path d="M242.884 254.491L236.887 251.029V250.28L242.884 253.743V254.491Z" fill="white"/>
<path d="M225.102 274.139V274.888L219.106 271.427V270.677L225.102 274.139Z" fill="white"/>
<path d="M260.667 265.407L254.671 261.944V261.195L260.667 264.657V265.407Z" fill="white"/>
<path d="M251.776 269.968L245.78 266.505V265.756L251.776 269.219V269.968Z" fill="white"/>
<path d="M320.399 304.22C320.764 290.861 330.475 285.549 342.388 292.428C348.52 295.969 354.071 302.071 358.068 309.036L362.463 307.931C357.456 298.848 350.312 290.839 342.388 286.264C327.396 277.608 315.183 284.451 315 301.5L318.516 304.693L320.399 304.22Z" fill="#FBC907"/>
<path d="M353.429 345.908C350.179 346.204 346.413 345.297 342.388 342.973C331.103 336.459 321.787 321.285 320.521 307.989L315.144 305.279L313.356 305.84C314.911 322.389 328.339 341.025 342.388 349.137C347.489 352.083 350.943 353.632 355.037 353.196C355.209 353.179 356.705 352.752 356.875 352.728L353.429 345.908" fill="#FBC907"/>
<path d="M360.149 313.073C362.816 318.793 364.412 324.849 364.412 330.416C364.412 338.402 361.159 343.643 356.104 345.359L359.508 352.1C365.767 349.948 369.784 343.422 369.784 333.517C369.784 326.605 367.824 319.08 364.516 311.975L360.149 313.073" fill="#FBC907"/>
<path d="M349.949 324.149C348.473 322.891 347.141 321.291 346.086 319.525C345.448 318.456 345.47 317.296 346.092 316.935C346.894 316.467 347.602 315.723 348.064 314.735C348.741 314.923 349.58 314.673 349.58 313.745C349.58 312.797 349.161 311.767 348.602 311.245C348.437 307.193 347.053 303.029 342.392 300.339C340.762 299.397 339.533 299.099 338.617 299.273C338.404 299.315 336.556 299.801 336.376 299.891C335.112 300.519 336.274 301.876 336.181 304.073C335.621 303.949 335.202 304.497 335.202 305.444C335.202 306.372 336.042 307.591 336.72 308.185C337.181 309.705 337.888 311.267 338.69 312.661C339.312 313.74 339.334 314.925 338.696 315.257C337.642 315.805 336.31 315.868 334.834 315.423C334.241 315.243 333.694 315.227 333.22 315.357C333.085 315.395 331.425 315.825 331.301 315.887C330.434 316.319 331.424 316.951 331.424 318.421V322.6C331.424 323.409 331.996 324.396 332.701 324.804L350.608 336.656C350.918 336.835 352.677 336.209 352.898 336.126C353.18 336.021 353.36 335.719 353.36 335.265V331.086C353.36 328.676 351.905 325.816 349.949 324.149" fill="#FBC907"/>
<path d="M319.195 304.564C319.56 291.205 329.271 285.893 341.184 292.772C347.316 296.313 352.867 302.415 356.864 309.38L361.259 308.275C356.252 299.192 349.108 291.183 341.184 286.608C326.192 277.952 313.979 284.795 313.796 301.844L319.195 304.564Z" fill="white"/>
<path d="M352.225 346.252C348.975 346.548 345.209 345.641 341.184 343.317C329.899 336.803 320.583 321.629 319.317 308.333L313.94 305.623C315.385 322.243 327.051 341.321 341.184 349.481C346.5 352.551 351.465 353.664 355.671 353.072L352.225 346.252" fill="white"/>
<path d="M358.945 313.417C361.612 319.137 363.208 325.193 363.208 330.76C363.208 338.745 359.954 343.986 354.898 345.703L358.304 352.444C364.562 350.292 368.58 343.767 368.58 333.861C368.58 326.949 366.62 319.424 363.312 312.319L358.945 313.417Z" fill="white"/>
<path d="M348.745 324.493C347.269 323.235 345.937 321.635 344.883 319.869C344.244 318.8 344.267 317.64 344.888 317.279C345.691 316.811 346.399 316.067 346.86 315.079C347.537 315.267 348.376 315.017 348.376 314.089C348.376 313.141 347.957 312.111 347.399 311.589C347.233 307.537 345.849 303.373 341.188 300.683C336.527 297.991 335.143 300.556 334.977 304.417C334.417 304.293 333.999 304.841 333.999 305.788C333.999 306.716 334.839 307.935 335.516 308.529C335.977 310.049 336.684 311.611 337.487 313.005C338.108 314.084 338.131 315.269 337.492 315.601C336.439 316.149 335.107 316.212 333.631 315.767C331.673 315.175 330.219 316.355 330.219 318.765V322.944C330.219 323.753 330.792 324.74 331.497 325.148L350.879 336.337C351.584 336.745 352.156 336.419 352.156 335.609V331.431C352.156 329.02 350.701 326.16 348.745 324.493" fill="white"/>
<path d="M318.507 304.736C318.872 291.377 328.583 286.065 340.496 292.944C346.628 296.485 352.179 302.587 356.176 309.552L360.571 308.447C355.564 299.364 348.42 291.355 340.496 286.78C325.504 278.124 313.291 284.967 313.108 302.016L318.507 304.736Z" fill="#F9DE0C"/>
<path d="M351.537 346.424C348.287 346.72 344.521 345.814 340.496 343.489C329.211 336.974 319.895 321.802 318.629 308.505L313.252 305.795C314.697 322.414 326.363 341.493 340.496 349.653C345.812 352.722 350.777 353.836 354.983 353.244L351.537 346.424" fill="#F9DE0C"/>
<path d="M358.257 313.589C360.924 319.309 362.52 325.365 362.52 330.932C362.52 338.917 359.267 344.159 354.212 345.874L357.616 352.616C363.875 350.464 367.892 343.938 367.892 334.033C367.892 327.121 365.932 319.596 362.624 312.491L358.257 313.589" fill="#F9DE0C"/>
<path d="M348.057 324.665C346.581 323.407 345.249 321.807 344.195 320.041C343.556 318.972 343.579 317.812 344.2 317.451C345.004 316.983 345.711 316.239 346.172 315.251C346.849 315.439 347.688 315.189 347.688 314.261C347.688 313.313 347.269 312.283 346.711 311.761C346.545 307.709 345.161 303.545 340.5 300.855C335.839 298.163 334.455 300.728 334.289 304.589C333.729 304.465 333.311 305.013 333.311 305.96C333.311 306.888 334.151 308.107 334.828 308.701C335.289 310.221 335.996 311.783 336.799 313.177C337.42 314.256 337.443 315.441 336.804 315.773C335.751 316.321 334.419 316.384 332.943 315.939C330.985 315.347 329.531 316.527 329.531 318.937V323.116C329.531 323.925 330.104 324.912 330.809 325.32L350.191 336.509C350.896 336.917 351.468 336.591 351.468 335.781V331.603C351.468 329.192 350.013 326.332 348.057 324.665" fill="#F9DE0C"/>
<path d="M209.772 269.497V307.561L216.156 304.053V265.777L209.772 269.497" fill="#3AA59F"/>
<path d="M209.803 269.497V307.561L68.9453 226.24V187.964L209.803 269.497Z" fill="#45C0B5"/>
<path d="M68.9453 187.964L209.803 269.497L216.156 265.777L75.2466 184.319L68.9453 187.964" fill="#61CAC2"/>
<path d="M209.803 269.497L152.345 236.239C152.3 236 152.252 235.761 152.204 235.521L209.935 268.497L216.156 265.777L209.803 269.497V269.497ZM130.924 223.839L71.1108 189.217C71.1135 189.213 71.1175 189.209 71.1201 189.205L130.635 223.201C130.732 223.413 130.828 223.625 130.924 223.839" fill="#CBEDEA"/>
<path d="M202.641 296.035L75.896 222.061V199.635L202.641 273.607V296.035Z" fill="white"/>
<path d="M81.2065 205.973L83.7705 207.453L84.9559 219.696L85.0039 219.724L86.2612 208.892L89.1625 210.567L90.4199 222.851L90.4692 222.879L91.6545 212.005L93.9519 213.331L92.2345 228.393L88.9212 226.481L87.7119 216.056L87.6639 216.028L86.4545 225.057L82.9239 223.019L81.2065 205.973" fill="#254A98"/>
<path d="M96.3799 214.793L98.9439 216.273L100.128 228.516L100.177 228.544L101.435 217.712L104.336 219.387L105.593 231.672L105.643 231.7L106.827 220.825L109.124 222.152L107.408 237.213L104.095 235.301L102.885 224.876L102.837 224.848L101.628 233.877L98.0972 231.839L96.3799 214.793" fill="#254A98"/>
<path d="M111.675 223.492L114.239 224.972L115.423 237.215L115.472 237.243L116.729 226.411L119.631 228.085L120.888 240.371L120.937 240.399L122.121 229.524L124.419 230.851L122.703 245.912L119.389 244L118.18 233.575L118.132 233.547L116.923 242.576L113.392 240.537L111.675 223.492" fill="#254A98"/>
<path d="M132.896 73.6026V100.147L136.9 97.9413V71.1919L132.896 73.6026Z" fill="#FBC907"/>
<path d="M132.925 73.6026V100.147L109.297 86.4946V59.7453L132.925 73.6026Z" fill="#FAD609"/>
<path d="M109.297 59.7453L132.925 73.6027L136.9 71.192L113.22 57.4067L109.297 59.7453Z" fill="#F9DE0C"/>
<path d="M109.297 59.7453L132.925 73.6027L136.9 71.192L132.725 72.324L109.297 59.7453" fill="white"/>
<path d="M153.673 64.7493V107.731L160.156 104.16V60.8453L153.673 64.7493Z" fill="#D71968"/>
<path d="M115.458 42.3093L153.721 64.7493L160.156 60.8453L121.811 38.5239L115.458 42.3093Z" fill="#F03C96"/>
<path d="M153.721 64.7493L115.458 42.3093L153.894 63.8266L160.156 60.8453L153.721 64.7493" fill="#FBC4E2"/>
<path d="M115.458 42.3093V60.1359L135.708 72.0119V97.3239L153.721 107.731V64.7493L115.458 42.3093" fill="#EC2680"/>
<path d="M235.458 168.539V198.213L239.934 195.748V165.843L235.458 168.539" fill="#3AA59F"/>
<path d="M235.491 168.539V198.213L209.075 182.951V153.045L235.491 168.539" fill="#45C0B5"/>
<path d="M209.075 153.045L235.491 168.539L239.935 165.843L213.46 150.432L209.075 153.045" fill="#61CAC2"/>
<path d="M235.491 168.539L209.075 153.045L235.267 167.109L239.935 165.843L235.491 168.539Z" fill="#CBEDEA"/>
<path d="M270.125 188.539V218.213L274.601 215.748V185.843L270.125 188.539Z" fill="#3AA59F"/>
<path d="M270.157 188.539V218.213L243.741 202.952V173.047L270.157 188.539Z" fill="#45C0B5"/>
<path d="M243.741 173.047L270.157 188.539L274.601 185.843L248.127 170.432L243.741 173.047" fill="#61CAC2"/>
<path d="M270.157 188.539L243.741 173.047L269.933 187.109L274.601 185.843L270.157 188.539Z" fill="#CBEDEA"/>
<path d="M304.569 208.316V237.991L309.045 235.525V205.62L304.569 208.316Z" fill="#3AA59F"/>
<path d="M304.603 208.316V237.991L278.186 222.729V192.824L304.603 208.316Z" fill="#45C0B5"/>
<path d="M278.186 192.824L304.603 208.316L309.046 205.62L282.571 190.209L278.186 192.824" fill="#61CAC2"/>
<path d="M304.603 208.316L278.186 192.824L304.379 206.887L309.046 205.62L304.603 208.316Z" fill="#CBEDEA"/>
<path d="M338.569 227.649V257.324L343.045 254.859V224.953L338.569 227.649Z" fill="#3AA59F"/>
<path d="M338.603 227.649V257.324L312.186 242.063V212.157L338.603 227.649Z" fill="#45C0B5"/>
<path d="M312.186 212.157L338.603 227.649L343.046 224.953L316.571 209.543L312.186 212.157" fill="#61CAC2"/>
<path d="M338.603 227.649L312.186 212.157L338.379 226.22L343.046 224.953L338.603 227.649Z" fill="#CBEDEA"/>
<path d="M296.66 220.884C295.727 220.088 294.884 219.075 294.216 217.957C293.812 217.281 293.827 216.548 294.22 216.319C294.728 216.023 295.176 215.552 295.468 214.927C295.896 215.045 296.427 214.888 296.427 214.3C296.427 213.701 296.163 213.048 295.808 212.719C295.704 210.155 294.828 207.52 291.879 205.816C288.93 204.113 288.054 205.737 287.948 208.18C287.595 208.101 287.33 208.448 287.33 209.048C287.33 209.635 287.86 210.407 288.29 210.783C288.582 211.744 289.028 212.732 289.536 213.615C289.93 214.297 289.944 215.048 289.54 215.257C288.872 215.604 288.03 215.644 287.096 215.361C285.858 214.987 284.938 215.735 284.938 217.26V219.904C284.938 220.416 285.3 221.04 285.747 221.299L298.011 228.379C298.458 228.637 298.819 228.431 298.819 227.917V225.273C298.819 223.749 297.899 221.939 296.66 220.884" fill="white"/>
<path d="M330.516 227.331V247.801L334.797 250.273V229.803L330.516 227.331ZM323.737 243.887L328.019 246.359V232.285L323.737 229.813V243.887ZM316.958 239.973L321.24 242.445V234.768L316.958 232.297V239.973Z" fill="white"/>
<path d="M257.212 199.189C255.742 198.341 254.55 196.285 254.55 194.597C254.55 192.911 255.742 192.231 257.212 193.08C258.682 193.929 259.874 195.985 259.874 197.672C259.874 199.359 258.682 200.039 257.212 199.189ZM263.84 199.961C263.84 199.565 263.806 199.159 263.755 198.749L265.778 198.493C265.572 197.475 265.26 196.445 264.86 195.431L262.556 194.733C262.154 193.872 261.671 193.039 261.122 192.26L261.674 189.933C260.991 189.081 260.251 188.296 259.467 187.608L258.226 189.212C257.895 188.963 257.558 188.728 257.212 188.528C256.866 188.329 256.53 188.175 256.198 188.041L254.958 185.004C254.174 184.788 253.432 184.717 252.75 184.781L253.301 187.745C252.753 187.889 252.269 188.165 251.868 188.563L249.563 186.599C249.163 187.152 248.852 187.821 248.646 188.603L250.668 191.193C250.617 191.544 250.583 191.911 250.583 192.308C250.583 192.704 250.617 193.111 250.668 193.521L248.646 193.777C248.852 194.795 249.163 195.824 249.563 196.839L251.867 197.536C252.27 198.397 252.753 199.232 253.301 200.011L252.75 202.336C253.432 203.188 254.174 203.973 254.958 204.663L256.198 203.057C256.53 203.308 256.866 203.541 257.212 203.741C257.558 203.941 257.895 204.096 258.226 204.228L259.467 207.265C260.251 207.483 260.991 207.552 261.674 207.488L261.122 204.525C261.671 204.38 262.154 204.104 262.556 203.707L264.86 205.671C265.26 205.117 265.572 204.448 265.778 203.668L263.755 201.076C263.806 200.725 263.84 200.359 263.84 199.961Z" fill="white"/>
<path d="M213.971 164.848L222.473 178.135L230.976 174.667L230.984 174.677C230.703 174.268 230.356 173.915 229.975 173.695L214.973 165.033C214.592 164.813 214.244 164.767 213.964 164.851L213.971 164.848" fill="white"/>
<path d="M230.976 187.707L224.888 178.193L225.343 177.933L231.003 187.696L230.976 187.707ZM231.003 174.707L222.473 179.569L220.059 175.404L213.971 177.888L213.945 177.848L219.605 174.621L213.945 164.859C213.559 164.985 213.307 165.376 213.307 165.984V176.145C213.307 177.201 214.052 178.489 214.973 179.02L229.975 187.681C230.895 188.213 231.641 187.788 231.641 186.731V176.569C231.641 175.961 231.389 175.28 231.003 174.707" fill="white"/>
<path d="M102.424 255.303V293.367L108.433 289.948V251.672L102.424 255.303Z" fill="#386FB2"/>
<path d="M102.454 255.303V293.367L0.232422 234.367V196.091L102.454 255.303Z" fill="#5191D4"/>
<path d="M0.232422 196.091L102.454 255.303L108.434 251.672L6.15908 192.536L0.232422 196.091Z" fill="#7FB7E7"/>
<path d="M102.454 255.303L71.2418 237.223C71.1018 236.915 70.9631 236.605 70.8271 236.296L102.211 254.171L108.434 251.672L102.454 255.303ZM64.8831 233.54L0.232422 196.091L64.5591 232.727C64.6657 232.997 64.7738 233.269 64.8831 233.54" fill="#D8EDFA"/>
<path d="M17.4106 227.341V217.067L10.2733 212.945C9.12661 212.283 8.19727 212.813 8.19727 214.129V226.787C8.19727 228.103 9.12661 229.707 10.2733 230.368L11.4413 231.043V237.744L17.2813 234.415L28.9613 241.157C30.1079 241.82 31.0373 241.289 31.0373 239.973V239.377L21.0453 233.609C19.0413 232.452 17.4106 229.64 17.4106 227.341V227.341ZM36.6813 233.401C36.0719 233.748 35.0866 233.179 34.4786 232.129C33.8706 231.081 33.8706 229.949 34.4786 229.603C35.0866 229.256 36.0719 229.825 36.6813 230.875C37.2893 231.923 37.2893 233.055 36.6813 233.401ZM31.6199 230.479C31.0119 230.825 30.0253 230.256 29.4173 229.208C28.8093 228.159 28.8093 227.027 29.4173 226.68C30.0253 226.333 31.0119 226.903 31.6199 227.952C32.2279 229.001 32.2279 230.132 31.6199 230.479ZM26.5586 227.557C25.9506 227.904 24.9639 227.335 24.3559 226.285C23.7479 225.236 23.7479 224.105 24.3559 223.759C24.9639 223.412 25.9506 223.981 26.5586 225.029C27.1666 226.079 27.1666 227.211 26.5586 227.557ZM39.7319 225.188L21.0453 214.399C19.8986 213.736 18.9679 214.267 18.9679 215.583V228.24C18.9679 229.556 19.8986 231.16 21.0453 231.821L32.7239 238.565L38.5639 248.637V241.936L39.7319 242.611C40.8786 243.273 41.8093 242.743 41.8093 241.427V228.769C41.8093 227.453 40.8786 225.849 39.7319 225.188" fill="white"/>
<path d="M46.064 231.555V234.715L94.8986 262.911V259.751L46.064 231.555" fill="white"/>
<path d="M79.4533 263.984L46.064 244.688V247.848L79.4533 267.144V263.984Z" fill="white"/>
<path d="M46.064 241.281L94.8986 269.477V266.317L46.064 238.121V241.281" fill="white"/>
<path d="M162.883 342.268C161.481 342.268 160.143 341.985 159.143 341.408L124.96 322.21C122.175 322.672 119.195 322.933 116.079 322.933C101.129 322.933 89.0107 317.177 89.0107 310.076C89.0107 302.976 101.129 297.219 116.079 297.219C131.029 297.219 143.148 302.976 143.148 310.076C143.148 312.649 141.539 315.041 138.797 317.052L170.543 334.873C173.931 336.873 170.576 339.617 167.753 341.051C166.36 341.856 164.576 342.268 162.883 342.268" fill="#EDF4F9"/>
<path d="M170.433 331.368C172.337 334.9 171.017 339.307 167.484 341.21C163.952 343.114 159.545 341.793 157.641 338.261C155.739 334.728 157.059 330.321 160.591 328.419C164.124 326.514 168.531 327.836 170.433 331.368" fill="#17203E"/>
<path d="M147.443 285.681L131.713 294.157L155.177 337.444L155.18 337.443L155.211 337.507C156.573 340.036 161.2 340.189 165.544 337.849C169.887 335.508 172.304 331.56 170.94 329.031L170.904 328.969L170.907 328.968L147.443 285.681" fill="#254A98"/>
<path d="M147.46 285.713C148.823 288.243 146.407 292.191 142.063 294.531C137.719 296.871 133.093 296.719 131.729 294.188C130.367 291.659 132.783 287.711 137.127 285.371C141.471 283.031 146.096 283.183 147.46 285.713" fill="#386FB2"/>
<path d="M137.143 274.197L127.787 279.239L134.439 291.585L134.441 291.584L134.459 291.623C135.269 293.128 138.021 293.219 140.605 291.827C143.189 290.435 144.627 288.085 143.816 286.581L143.793 286.544H143.795L137.143 274.197Z" fill="#17203E"/>
<path d="M110.728 174.953C99.0798 168.228 88.5158 167.457 80.7865 171.643C80.5691 171.76 69.4771 177.949 69.1265 178.485C76.9931 172.552 88.6371 172.643 101.633 180.145C125.322 193.821 144.525 226.945 144.525 254.128C144.525 267.999 139.524 277.639 131.48 281.94C132.057 281.781 132.738 281.488 133.573 281.02C133.802 280.892 141.366 276.309 141.59 276.172C149.038 271.62 153.621 262.215 153.621 248.936C153.621 221.753 134.417 188.629 110.728 174.953Z" fill="#7FB7E7"/>
<path d="M100.99 272.092C80.8869 260.487 64.5909 232.377 64.5909 209.311C64.5909 186.243 80.8869 176.952 100.99 188.559C121.092 200.164 137.388 228.273 137.388 251.34C137.388 274.407 121.092 283.699 100.99 272.092ZM101.634 180.145C77.9442 166.468 58.7402 177.417 58.7402 204.6C58.7402 231.783 77.9442 264.907 101.634 278.584C125.323 292.26 144.526 281.312 144.526 254.128C144.526 226.945 125.323 193.821 101.634 180.145Z" fill="#D6EEFB"/>
<path d="M108.524 267.883C88.4215 256.276 72.1255 228.168 72.1255 205.1C72.1255 195.691 74.8388 188.576 79.4148 184.235C70.4255 186.649 64.5908 195.512 64.5908 209.311C64.5908 232.377 80.8868 260.487 100.989 272.092C112.892 278.964 123.457 278.508 130.099 272.207C124.061 273.829 116.601 272.545 108.524 267.883" fill="#7FB7E7"/>
<path d="M144.513 255.339C144.513 255.337 144.513 255.336 144.513 255.333C144.513 255.336 144.513 255.337 144.513 255.339ZM144.516 255.177V255.176V255.177ZM144.517 255.101C144.517 255.097 144.517 255.097 144.517 255.095C144.517 255.097 144.517 255.099 144.517 255.101ZM144.52 254.941C144.52 254.939 144.52 254.935 144.52 254.932C144.52 254.935 144.52 254.939 144.52 254.941ZM144.522 254.784C144.522 254.779 144.522 254.771 144.522 254.767C144.522 254.772 144.522 254.777 144.522 254.784ZM144.522 254.699C144.522 254.697 144.522 254.696 144.522 254.695C144.522 254.695 144.522 254.697 144.522 254.699ZM144.524 254.621C144.524 254.617 144.524 254.609 144.524 254.604C144.524 254.609 144.524 254.616 144.524 254.621ZM144.524 254.541C144.524 254.539 144.524 254.533 144.524 254.531C144.524 254.533 144.524 254.539 144.524 254.541ZM144.525 254.459C144.525 254.453 144.525 254.445 144.525 254.44C144.525 254.447 144.525 254.452 144.525 254.459ZM144.525 254.383C144.525 254.377 144.525 254.371 144.525 254.367C144.525 254.371 144.525 254.377 144.525 254.383ZM144.525 254.293C144.525 254.291 144.525 254.285 144.525 254.283C144.525 254.285 144.525 254.291 144.525 254.293ZM144.525 254.22C144.525 254.215 144.525 254.207 144.525 254.201C144.525 254.207 144.525 254.213 144.525 254.22Z" fill="white"/>
<path d="M132.007 281.653C139.512 277.351 144.236 268.263 144.513 255.339C144.513 255.337 144.513 255.336 144.513 255.333C144.515 255.281 144.515 255.229 144.516 255.177V255.176C144.516 255.152 144.517 255.125 144.517 255.101C144.517 255.099 144.517 255.097 144.517 255.095C144.519 255.044 144.519 254.992 144.52 254.941C144.52 254.939 144.52 254.935 144.52 254.932C144.521 254.883 144.521 254.833 144.523 254.784C144.523 254.777 144.523 254.772 144.523 254.767C144.523 254.743 144.523 254.721 144.523 254.699C144.523 254.697 144.523 254.695 144.523 254.695C144.523 254.669 144.524 254.647 144.524 254.621C144.524 254.616 144.524 254.609 144.524 254.604C144.524 254.583 144.524 254.563 144.524 254.541C144.524 254.539 144.524 254.533 144.524 254.531C144.524 254.505 144.524 254.483 144.525 254.459C144.525 254.452 144.525 254.447 144.525 254.44C144.525 254.421 144.525 254.403 144.525 254.383C144.525 254.377 144.525 254.371 144.525 254.367C144.525 254.341 144.525 254.319 144.525 254.293C144.525 254.291 144.525 254.285 144.525 254.283C144.525 254.261 144.525 254.241 144.525 254.22C144.525 254.213 144.525 254.207 144.525 254.201C144.525 254.176 144.525 254.153 144.525 254.128C144.525 231.352 131.044 204.405 112.737 188.221C109.196 185.091 105.473 182.363 101.633 180.145C94.7105 176.148 88.1705 174.255 82.3799 174.255C80.0412 174.255 77.8239 174.564 75.7532 175.168C75.2719 175.271 74.8012 175.385 74.3452 175.513C77.3452 174.013 80.7492 173.235 84.4625 173.235C90.2452 173.235 96.7759 175.123 103.692 179.116C127.38 192.793 146.584 225.916 146.584 253.099C146.584 267.831 140.944 277.793 132.007 281.653" fill="white"/>
<path d="M129.332 282.599C137.667 278.431 144.525 268.281 144.525 254.128C144.525 254.153 144.525 254.176 144.525 254.201C144.525 254.207 144.525 254.215 144.525 254.22C144.525 254.241 144.525 254.261 144.525 254.283C144.525 254.285 144.525 254.291 144.525 254.293C144.525 254.319 144.525 254.341 144.525 254.367C144.525 254.371 144.525 254.377 144.525 254.383C144.525 254.403 144.525 254.421 144.525 254.44C144.525 254.445 144.525 254.453 144.525 254.459C144.524 254.483 144.524 254.505 144.524 254.531C144.524 254.533 144.524 254.539 144.524 254.541C144.524 254.563 144.524 254.583 144.524 254.604C144.524 254.609 144.524 254.617 144.524 254.621C144.524 254.647 144.523 254.669 144.523 254.695C144.523 254.696 144.523 254.697 144.523 254.699C144.523 254.721 144.523 254.743 144.523 254.767C144.523 254.771 144.523 254.779 144.523 254.784C144.521 254.833 144.521 254.883 144.52 254.932C144.52 254.935 144.52 254.939 144.52 254.941C144.519 254.992 144.519 255.044 144.517 255.095C144.517 255.097 144.517 255.097 144.517 255.101C144.517 255.125 144.516 255.152 144.516 255.176V255.177C144.515 255.229 144.515 255.281 144.513 255.333C144.513 255.336 144.513 255.337 144.513 255.339C144.236 268.263 139.512 277.351 132.007 281.653C131.145 282.025 130.253 282.341 129.332 282.599V282.599ZM112.737 188.221C109.196 185.091 105.473 182.363 101.633 180.145C94.9388 176.28 87.8054 174.583 81.6761 174.583C79.5628 174.583 77.5694 174.784 75.7534 175.168C77.8241 174.564 80.0414 174.255 82.3801 174.255C88.1708 174.255 94.7108 176.148 101.633 180.145C105.473 182.363 109.196 185.091 112.737 188.221Z" fill="white"/>
</svg>
